<?xml version="1.0" standalone="no"?>
<!DOCTYPE svg PUBLIC "-//W3C//DTD SVG 1.1//EN" "http://www.w3.org/Graphics/SVG/1.1/DTD/svg11.dtd" >
<svg xmlns="http://www.w3.org/2000/svg">
<metadata>Generated by IcoMoon</metadata>
<defs>
<font id="jobsoid" horiz-adv-x="1024">
<font-face units-per-em="1024" ascent="960" descent="-64" />
<missing-glyph horiz-adv-x="1024" />
<glyph unicode="&#x20;" horiz-adv-x="512" d="" />
<glyph unicode="&#xe034;" glyph-name="tools" d="M713.116 541.495l-293.976-293.975c19.365-60.637 2.54-131.114-42.435-176.406-30.795-30.901-71.536-48.678-115.135-48.678-24.657 0-48.573 5.609-70.795 16.085-6.138 2.857-10.476 8.572-11.64 15.238s0.952 13.439 5.715 18.202l90.69 91.219c2.751 2.751 3.492 6.878 0.529 9.841l-39.154 41.059c-2.434 2.434-7.62 0.318-9.63-1.799l-91.008-91.43c-4.868-4.868-11.746-6.984-18.519-5.821-6.878 1.27-12.593 5.821-15.344 12.169-27.408 62.964-13.333 135.77 35.027 184.449 32.699 32.91 78.097 51.112 124.342 51.112 16.931 0 33.863-2.434 49.948-7.62l293.976 293.976c-19.365 60.637-2.54 131.22 42.435 176.406 48.678 48.996 123.601 62.012 186.036 32.594 6.138-2.857 10.476-8.572 11.64-15.238s-0.952-13.545-5.715-18.308l-91.219-91.219c-2.857-2.857-2.857-6.878 0-9.735l39.049-39.049c2.646-2.646 7.196-2.963 9.841-0.318l91.008 91.43c4.868 4.868 11.852 6.984 18.519 5.82 6.773-1.27 12.487-5.82 15.238-12.169 27.303-62.964 13.333-135.77-35.027-184.449-32.699-32.805-78.097-51.112-124.342-51.112-17.037 0-33.863 2.434-49.949 7.62zM851.109 71.959l37.356 39.049c3.069 3.069 3.28 6.878 0.212 9.947l-260.641 260.642c-8.148 8.148-8.148 21.27 0 29.418s21.27 8.148 29.418 0l260.641-260.641c19.154-19.154 19.154-49.313 0.212-68.361l-37.355-39.049c-9.313-9.418-21.694-14.71-34.921-14.71-13.122 0-25.398 5.185-34.71 14.392l-261.382 260.642c-8.148 8.042-8.148 21.27-0.106 29.418s21.27 8.148 29.418 0.106l261.382-260.641c2.751-2.751 7.831-2.857 10.476-0.212zM242.099 748.060l193.867-193.867c8.148-8.148 8.148-21.376 0-29.418-3.916-3.916-9.207-6.138-14.71-6.138s-10.794 2.223-14.71 6.138l-193.867 193.761-11.429-11.429c-3.916-3.81-9.207-6.032-14.71-6.032s-10.794 2.223-14.71 6.138l-78.203 78.203c-8.148 8.148-8.148 21.376 0 29.418l52.17 52.17c8.148 8.148 21.27 8.148 29.418 0l78.203-78.203c8.148-8.148 8.148-21.27 0-29.418l-11.323-11.323zM786.663 830.072c-39.472 7.514-80.531-5.291-109.103-34.075-35.98-36.297-48.467-97.039-28.678-144.342 3.28-7.725 1.481-16.825-4.444-22.752l-312.812-312.812c-6.032-5.926-15.132-7.725-22.858-4.339-14.921 6.349-30.901 9.313-47.091 9.313-35.239 0-69.948-13.757-94.817-38.837-28.255-28.361-41.271-68.255-35.345-107.198l66.245 66.562c18.308 18.413 50.16 20.423 68.891 1.481l39.154-40.953c19.048-19.154 18.096-49.313-0.741-68.255l-67.091-67.515c39.472-7.62 80.637 5.291 109.315 34.075 36.086 36.297 48.467 97.039 28.678 144.342-3.28 7.725-1.481 16.825 4.444 22.752l312.812 312.812c6.032 5.926 15.132 7.725 22.858 4.444 14.921-6.349 30.901-9.313 47.091-9.313 35.239 0 69.948 13.757 94.817 38.837 28.255 28.36 41.271 68.255 35.345 107.304l-66.245-66.562c-18.624-18.73-50.266-18.308-68.785 0.212l-39.154 39.049c-19.154 19.154-19.154 49.313-0.106 68.467l67.515 67.515zM186.649 751.341l22.752 22.752-48.784 48.784-22.752-22.752 48.784-48.784z" />
<glyph unicode="&#xe05d;" glyph-name="social-facebook-circle" d="M512 896.001c247.296 0 448.001-200.704 448.001-448.001s-200.704-448.001-448.001-448.001c-247.296 0-448.001 200.704-448.001 448.001s200.704 448.001 448.001 448.001zM512 43.007c222.208 0 404.993 180.992 404.993 404.993 0 222.208-180.992 404.993-404.993 404.993-222.208 0-404.993-180.992-404.993-404.993 0-222.208 180.992-404.993 404.993-404.993zM628.48 600.32c1.792-5.376-1.792-12.544-5.376-16.128-5.376-3.584-8.96-3.584-14.336-5.376 0 0-1.792 0-1.792 0h-50.176c-1.792 0-7.168 0-10.752 0 0-1.792-1.792-7.168-1.792-7.168v-34.048h60.928c12.544 1.792 23.296-8.96 21.504-21.504v-82.432c1.792-12.544-8.96-23.296-21.504-21.504h-60.928v-198.912c3.584-12.544-7.168-23.296-19.712-21.504h-82.432c-12.544-1.792-23.296 8.96-21.504 21.504v198.912h-34.048c-12.544-1.792-23.296 8.96-21.504 21.504v82.432c-1.792 12.544 8.96 23.296 21.504 21.504h34.048v37.632c0 78.848 23.296 127.232 112.896 127.232h73.472c12.544 1.792 23.296-8.96 21.504-21.504v-82.432zM585.472 621.824v37.632h-51.968c-62.72 0-71.68-26.88-71.68-84.224v-59.136c0-5.376-1.792-10.752-5.376-16.128-3.584-3.584-8.96-7.168-16.128-7.168h-34.048v-39.424h34.048c12.544 0 21.504-10.752 21.504-21.504v-198.912h41.216v198.912c0 12.544 8.96 21.504 21.504 21.504h60.928v39.424h-60.928c-5.376 0-10.752 1.792-16.128 7.168-3.584 3.584-7.168 8.96-7.168 16.128v51.968c0 35.84 14.336 53.76 53.76 53.76l26.88-1.792z" />
<glyph unicode="&#xe05e;" glyph-name="social-twitter-circle" d="M511.944 902.362c250.597 0 454.418-203.822 454.418-454.305s-203.822-454.418-454.418-454.418c-250.484 0-454.418 203.822-454.418 454.418s203.822 454.305 454.418 454.305zM511.944 37.701c226.192 0 410.355 184.049 410.355 410.355 0 226.192-184.049 410.355-410.355 410.355-226.192 0-410.355-184.049-410.355-410.355 0-226.192 184.049-410.355 410.355-410.355zM768.641 593.692c4.294-1.129 8.135-3.615 11.185-7.118 6.327-7.457 6.892-18.303 1.469-26.438-11.524-17.287-25.647-32.652-41.804-45.758 0-0.339 0-0.791 0-1.129 0-158.063-124.281-282.571-282.571-282.571-54.006 0-106.656 15.479-152.188 44.628-8.586 5.536-12.315 16.382-8.812 25.986 3.389 9.604 13.106 15.366 23.388 14.462 25.873-3.050 52.876 0.226 77.28 9.491-23.952 14.010-42.256 36.494-50.842 63.383-1.808 5.536-1.356 11.411 1.356 16.608-21.918 21.354-34.46 50.616-34.46 81.461 0 7.683 4.068 15.366 10.62 19.433-6.553 14.575-9.943 30.393-9.943 46.436 0 19.998 5.31 39.77 15.366 57.057 3.615 6.327 10.169 10.394 17.4 10.959s14.235-2.486 18.755-8.022c36.945-45.419 89.596-75.699 147.33-84.963 2.034 60.898 52.198 109.707 113.548 109.707 26.777 0 52.876-9.604 73.326-26.777 14.235 3.841 27.794 9.604 40.448 17.061 7.909 4.633 17.852 3.955 24.97-1.808 7.118-5.649 10.056-15.253 7.231-23.952-0.904-2.825-1.921-5.536-3.050-8.248zM699.835 538.557c-4.633 2.599-8.474 6.892-10.282 12.203-1.582 4.52-1.469 9.378-0.113 13.671-4.858 0.678-9.491 3.050-12.993 6.779-13.106 14.010-31.635 21.918-50.729 21.918-38.302 0-69.485-31.183-69.485-69.485 0-5.31 0.565-10.733 1.808-15.931 1.582-6.666-0.113-13.784-4.52-19.094s-10.846-7.909-18.077-7.909c-66.321 3.389-129.365 30.167-177.836 75.134-0.113-1.129-0.113-2.373-0.113-3.502 0-23.275 11.524-44.967 30.958-57.847 8.135-5.423 11.75-15.705 8.699-25.083-2.937-9.265-11.864-15.253-21.693-15.253-3.728 0.113-7.344 0.452-10.959 0.904 9.491-18.755 27.003-32.539 48.018-36.72 10.056-2.034 17.4-10.733 17.739-20.902s-6.44-19.32-16.269-22.031c-2.825-0.791-5.762-1.469-8.699-2.034 12.541-12.315 29.488-19.546 47.453-19.885 9.378-0.226 17.513-6.214 20.45-15.027s0-18.642-7.344-24.404c-18.868-14.801-39.883-26.099-62.367-33.556 17.513-4.068 35.59-6.101 53.554-6.101 133.772 0 238.395 104.961 238.395 238.508 0 3.615-0.113 7.118-0.226 10.733-0.339 5.31 1.356 10.507 4.52 14.575z" />
<glyph unicode="&#xe05f;" glyph-name="social-googleplus-circle" d="M512 896.001c247.296 0 448.001-200.704 448.001-448.001s-200.704-448.001-448.001-448.001c-247.296 0-448.001 200.704-448.001 448.001s200.704 448.001 448.001 448.001zM512 43.007c222.208 0 404.993 180.992 404.993 404.993 0 222.208-180.992 404.993-404.993 404.993-222.208 0-404.993-180.992-404.993-404.993 0-222.208 180.992-404.993 404.993-404.993zM526.336 602.112c12.544-16.128 21.504-35.84 21.504-57.344 0-34.048-19.712-64.512-48.384-82.432 0-1.792-1.792-3.584-3.584-5.376-5.376-7.168-8.96-19.712-7.168-28.672 3.584-19.712 21.504-34.048 35.84-44.8 3.584-1.792 5.376-5.376 7.168-7.168 25.088-17.92 44.8-44.8 44.8-77.056 0-71.68-82.432-109.312-145.152-109.312s-145.152 35.84-145.152 109.312c0 71.68 82.432 109.312 145.152 109.312 7.168 0 12.544 0 19.712-1.792-1.792 5.376-3.584 12.544-5.376 17.92 0 7.168 0 12.544 0 19.712-5.376 0-10.752-1.792-16.128-1.792-57.344 0-118.272 39.424-118.272 102.144s60.928 102.144 118.272 102.144c1.792 0 3.584 0 3.584 0s1.792 0 1.792 0h116.48c12.544 0 21.504-8.96 21.504-21.504s-8.96-21.504-21.504-21.504h-26.88zM710.912 521.472v-59.136c0-12.544-8.96-21.504-21.504-21.504s-19.712 10.752-19.712 21.504v59.136h-59.136c-12.544-1.792-21.504 8.96-21.504 21.504s10.752 21.504 21.504 21.504h59.136v60.928c-3.584 10.752 8.96 19.712 19.712 19.712 12.544 0 21.504-8.96 21.504-21.504v-59.136h57.344c12.544 1.792 21.504-8.96 21.504-21.504s-10.752-21.504-21.504-21.504h-57.344zM431.36 232.96c37.632 0 100.352 19.712 100.352 64.512 0 46.592-64.512 64.512-100.352 64.512-37.632 0-100.352-19.712-100.352-64.512 0-46.592 64.512-64.512 100.352-64.512zM429.568 485.632c34.048 0 75.264 21.504 75.264 57.344 0 37.632-41.216 57.344-75.264 57.344s-75.264-21.504-75.264-57.344c0-37.632 41.216-57.344 75.264-57.344z" />
<glyph unicode="&#xe060;" glyph-name="rss" d="M512 896c247.296 0 448-200.704 448-448s-200.704-448-448-448c-247.296 0-448 200.704-448 448s200.704 448 448 448zM512 43.008c222.208 0 404.992 180.992 404.992 404.992 0 222.208-180.992 404.992-404.992 404.992-222.208 0-404.992-180.992-404.992-404.992 0-222.208 180.992-404.992 404.992-404.992zM558.592 268.8c0 53.76-14.336 107.52-53.76 145.152-37.632 39.424-91.392 53.76-145.152 53.76-12.544 0-21.504 8.96-21.504 21.504s8.96 21.504 21.504 21.504c64.512 0 129.024-19.712 175.616-66.304s66.304-111.104 66.304-175.616c0-12.544-8.96-21.504-21.504-21.504s-21.504 8.96-21.504 21.504zM359.68 646.912c215.040 0 381.696-161.28 379.904-378.112 0-12.544-8.96-21.504-21.504-21.504s-21.504 8.96-21.504 21.504c0 191.744-146.944 333.312-336.896 333.312-12.544 0-21.504 8.96-21.504 21.504s8.96 21.504 21.504 21.504zM400.896 376.32c34.048 0 62.72-28.672 62.72-62.72s-28.672-62.72-62.72-62.72c-34.048 0-62.72 28.672-62.72 62.72s28.672 62.72 62.72 62.72zM400.896 293.888c10.752 0 19.712 8.96 19.712 19.712s-8.96 19.712-19.712 19.712c-10.752 0-19.712-8.96-19.712-19.712s8.96-19.712 19.712-19.712z" />
<glyph unicode="&#xe062;" glyph-name="social-linkedin-circle" d="M512 896.001c247.296 0 448.001-200.704 448.001-448.001s-200.704-448.001-448.001-448.001c-247.296 0-448.001 200.704-448.001 448.001s200.704 448.001 448.001 448.001zM512 43.007c222.208 0 404.993 180.992 404.993 404.993 0 222.208-180.992 404.993-404.993 404.993-222.208 0-404.993-180.992-404.993-404.993 0-222.208 180.992-404.993 404.993-404.993zM739.584 241.92c3.584-12.544-7.168-23.296-19.712-21.504h-86.016c-12.544 0-23.296 10.752-19.712 21.504v179.2c-1.792 12.544-7.168 17.92-21.504 17.92-5.376 0-14.336 0-17.92-5.376-1.792-1.792-3.584-7.168-3.584-8.96 0 0 0 0 0 0v-182.784c0-12.544-10.752-21.504-21.504-21.504h-82.432c-12.544 0-23.296 8.96-19.712 21.504v301.057c-3.584 12.544 7.168 23.296 19.712 21.504h80.64c7.168 1.792 14.336-1.792 17.92-7.168 12.544 5.376 26.88 8.96 39.424 8.96 82.432 0 132.608-55.552 130.816-136.192v-186.368zM375.808 702.464c34.048 0 62.72-28.672 62.72-62.72s-28.672-62.72-62.72-62.72c-34.048 0-62.72 28.672-62.72 62.72s28.672 62.72 62.72 62.72zM313.088 241.92v301.057c-1.792 12.544 7.168 23.296 19.712 23.296h82.432c12.544 0 21.504-8.96 21.504-21.504v-302.849c0-12.544-10.752-21.504-21.504-21.504h-80.64c-12.544 0-23.296 8.96-19.712 21.504zM698.368 261.632v166.656c0 57.344-32.256 93.184-89.6 93.184-17.92 0-26.88-5.376-39.424-16.128l-3.584-3.584c-7.168-5.376-16.128-5.376-23.296-1.792s-12.544 10.752-12.544 19.712v1.792h-39.424v-259.841h41.216v155.904c-7.168 12.544 3.584 35.84 12.544 46.592 12.544 14.336 30.464 19.712 50.176 19.712 35.84 0 60.928-21.504 60.928-59.136v-161.28h43.008zM374.016 620.032c10.752 0 19.712 8.96 19.712 19.712s-8.96 19.712-19.712 19.712c-10.752 0-19.712-8.96-19.712-19.712s8.96-19.712 19.712-19.712zM393.728 261.632v259.841h-41.216v-259.841h41.216z" />
<glyph unicode="&#xe600;" glyph-name="circle" d="M512 896c-247.296 0-448-200.704-448-448s200.704-448 448-448c247.296 0 448 200.704 448 448s-200.704 448-448 448zM512 854.784c224 0 406.784-182.784 406.784-406.784s-180.992-406.784-406.784-406.784c-224 0-406.784 180.992-406.784 406.784 0 224 182.784 406.784 406.784 406.784z" />
<glyph unicode="&#xe601;" glyph-name="heart" d="M512 46.592c-3.584 0-7.168 1.792-10.752 3.584s-109.312 60.928-216.832 157.696c-62.72 57.344-112.896 114.688-150.528 173.824-46.592 73.472-69.888 148.736-69.888 220.416 0 136.192 111.104 247.296 247.296 247.296 46.592 0 94.976-17.92 137.984-48.384 25.088-17.92 46.592-41.216 62.72-64.512 16.128 23.296 37.632 46.592 62.72 64.512 43.008 32.256 91.392 48.384 137.984 48.384 136.192 0 247.296-111.104 247.296-247.296 0-71.68-23.296-145.152-69.888-220.416-35.84-57.344-86.016-116.48-150.528-173.824-107.52-96.768-211.456-155.904-216.832-157.696-3.584-1.792-7.168-3.584-10.752-3.584zM311.296 801.024c-111.104 0-200.704-89.6-200.704-200.704 0-143.36 111.104-274.176 204.288-358.4 82.432-75.264 166.656-127.232 197.12-145.152 30.464 17.92 114.688 69.888 197.12 145.152 93.184 84.224 204.288 215.040 204.288 358.4 0 111.104-89.6 200.704-200.704 200.704-80.64 0-157.696-66.304-177.408-125.44-3.584-8.96-12.544-16.128-21.504-16.128-10.752 0-19.712 7.168-21.504 16.128-19.712 59.136-98.56 125.44-177.408 125.44v0z" />
<glyph unicode="&#xe602;" glyph-name="heart-fill" d="M512 46.592c-3.584 0-7.168 1.792-10.752 3.584s-109.312 60.928-216.832 157.696c-62.72 57.344-112.896 114.688-150.528 173.824-46.592 73.472-69.888 148.736-69.888 220.416 0 136.192 111.104 247.296 247.296 247.296 46.592 0 94.976-17.92 137.984-48.384 25.088-17.92 46.592-41.216 62.72-64.512 16.128 23.296 37.632 46.592 62.72 64.512 43.008 32.256 91.392 48.384 137.984 48.384 136.192 0 247.296-111.104 247.296-247.296 0-71.68-23.296-145.152-69.888-220.416-35.84-57.344-86.016-116.48-150.528-173.824-107.52-96.768-211.456-155.904-216.832-157.696-3.584-1.792-7.168-3.584-10.752-3.584z" />
<glyph unicode="&#xe603;" glyph-name="ticket" d="M397.312 1.792l-100.352 100.352c-3.584 3.584-3.584 8.96 0 10.752l8.96 8.96c17.92 17.92 21.504 28.672 21.504 51.968 0 50.176-35.84 86.016-86.016 86.016-23.296 0-35.84-3.584-51.968-21.504l-8.96-8.96c-3.584-3.584-8.96-3.584-10.752 0l-100.352 100.352c-3.584 3.584-3.584 8.96 0 10.752l548.352 548.352c3.584 3.584 8.96 3.584 10.752 0l100.352-100.352c3.584-3.584 3.584-8.96 0-10.752l-8.96-8.96c-17.92-17.92-21.504-28.672-21.504-51.968 0-50.176 35.84-86.016 86.016-86.016 23.296 0 35.84 3.584 51.968 21.504l8.96 8.96c3.584 3.584 8.96 3.584 10.752 0l100.352-100.352c3.584-3.584 3.584-8.96 0-10.752l-548.352-548.352c-3.584-3.584-8.96-3.584-10.752 0zM710.912 365.568l-39.424 39.424c-3.584 3.584-3.584 8.96 0 10.752l19.712 19.712c3.584 3.584 8.96 3.584 10.752 0l39.424-39.424 159.488 159.488-51.968 51.968c-19.712-14.336-41.216-19.712-66.304-19.712-73.472 0-130.816 55.552-130.816 130.816 0 26.88 3.584 46.592 19.712 66.304l-51.968 51.968-159.488-159.488 39.424-39.424c3.584-3.584 3.584-8.96 0-10.752l-19.712-19.712c-3.584-3.584-8.96-3.584-10.752 0l-39.424 39.424-308.224-308.224 51.968-51.968c19.712 14.336 41.216 19.712 66.304 19.712 73.472 0 130.816-55.552 130.816-130.816 0-26.88-3.584-46.592-19.712-66.304l51.968-51.968 308.224 308.224zM528.128 612.864l53.76-53.76c3.584-3.584 3.584-8.96 0-10.752l-19.712-19.712c-3.584-3.584-8.96-3.584-10.752 0l-53.76 53.76c-3.584 3.584-3.584 8.96 0 10.752l19.712 19.712c3.584 3.584 8.96 3.584 10.752 0zM623.104 517.888l53.76-53.76c3.584-3.584 3.584-8.96 0-10.752l-19.712-19.712c-3.584-3.584-8.96-3.584-10.752 0l-53.76 53.76c-3.584 3.584-3.584 8.96 0 10.752l19.712 19.712c3.584 3.584 8.96 3.584 10.752 0z" />
<glyph unicode="&#xe604;" glyph-name="email-inbox" d="M822.016 602.112l132.608-55.552c3.584-1.792 5.376-3.584 5.376-7.168v-532.224c0-5.376-3.584-8.96-8.96-8.96h-879.872c-5.376 0-8.96 3.584-8.96 8.96v532.224c0 3.584 1.792 5.376 5.376 7.168l132.608 55.552v284.928c0 5.376 3.584 8.96 8.96 8.96h603.904c5.376 0 8.96-3.584 8.96-8.96v-284.928zM779.008 851.2h-534.016v-396.032l267.008-166.656 267.008 166.656v396.032zM201.984 483.84v71.68l-68.096-28.672 68.096-43.008zM108.8 43.008h808.192v446.208l-399.616-250.88c-3.584-1.792-5.376-1.792-8.96 0l-399.616 250.88v-446.208zM891.904 525.056l-68.096 28.672v-71.68l68.096 43.008zM537.088 510.72v224c0 3.584-3.584 7.168-7.168 7.168h-26.88c-3.584 0-7.168-3.584-7.168-7.168v-224l-75.264 75.264c-1.792 1.792-3.584 1.792-5.376 1.792s-3.584 0-5.376-1.792l-19.712-21.504c-3.584-1.792-1.792-7.168 0-8.96l109.312-111.104c1.792-1.792 3.584-1.792 5.376-1.792h19.712c1.792 0 3.584 0 5.376 1.792l109.312 111.104c1.792 1.792 1.792 5.376 0 8.96l-19.712 19.712c-1.792 1.792-3.584 1.792-5.376 1.792s-3.584 0-5.376-1.792l-75.264-73.472z" />
<glyph unicode="&#xe606;" glyph-name="email-sent" d="M806.981 594.934l125.823-52.7c2.963-1.27 4.762-4.022 4.762-7.196v-504.774c0-4.339-3.492-7.831-7.831-7.831h-835.575c-4.339 0-7.831 3.492-7.831 7.831v504.774c0 3.174 1.799 5.926 4.762 7.196l125.823 52.7v270.8c0 4.339 3.492 7.831 7.831 7.831h574.511c4.339 0 7.831-3.492 7.831-7.831v-270.8zM765.286 831.871h-506.678v-375.882l253.34-158.84 253.34 158.84v375.882zM216.913 482.128v67.621l-64.551-27.091 64.551-40.53zM128.023 64.023h767.743v424.56l-379.797-238.101c-2.646-1.587-5.715-1.587-8.254 0l-379.797 238.101v-424.56zM871.532 522.552l-64.551 27.091v-67.621l64.551 40.53zM491.1 658.851l-68.891-68.149c-1.587-1.481-3.386-2.328-5.609-2.222-2.223 0-4.022 0.847-5.503 2.434l-18.519 19.471c-2.857 3.069-2.857 7.831 0.106 10.794l104.447 106.352c1.481 1.587 3.386 2.328 5.503 2.328h18.413c2.222 0 4.022-0.741 5.609-2.328l104.447-106.352c2.857-2.963 2.963-7.62 0.212-10.688l-18.413-20.423c-1.481-1.693-3.386-2.54-5.609-2.54-2.222-0.106-4.127 0.741-5.715 2.328l-68.89 68.89v-210.799c0-4.339-3.492-7.831-7.831-7.831h-26.138c-4.339 0-7.831 3.492-7.831 7.831v210.905z" />
<glyph unicode="&#xe608;" glyph-name="file" d="M610.997 871.979l242.44-242.44c1.058-1.058 1.693-2.434 1.693-3.916v-597.58c0-3.069-2.54-5.609-5.609-5.609h-674.937c-3.069 0-5.609 2.54-5.609 5.609v840.020c0 3.069 2.54 5.609 5.609 5.609h432.603c1.587 0 2.857-0.529 3.916-1.693zM606.341 816.845v-192.174h192.28l-192.28 192.279zM211.2 64.763h601.919v517.578h-243.392c-3.069 0-5.609 2.54-5.609 5.609v243.392h-352.918v-766.579z" />
<glyph unicode="&#xe609;" glyph-name="candidate-circle" d="M824.758 135.246c-78.113-78.076-185.764-126.286-304.903-126.323-119.175 0.036-226.826 48.246-304.939 126.323-78.076 78.113-126.323 185.764-126.323 304.903 0 119.175 48.246 226.826 126.323 304.939 78.113 78.076 185.764 126.286 304.939 126.323 119.138-0.036 226.79-48.246 304.903-126.323 78.076-78.113 126.286-185.764 126.323-304.939-0.036-119.138-48.21-226.79-126.323-304.903zM519.855 920.604c-265.372 0-480.456-215.084-480.456-480.456 0-265.336 215.084-480.419 480.456-480.419 265.336 0 480.419 215.084 480.419 480.419 0 265.372-215.084 480.456-480.419 480.456zM544.985 311.35l-2.516 22.136-45.329-0.583-2.407-21.589c-5.725-51.127-49.085-90.986-101.707-90.949h-101.087v100.285c0.073 57.071 46.24 103.275 103.348 103.385h249.217c57.035-0.109 103.202-46.277 103.312-103.312v-100.358h-101.051c-52.695-0.036-96.018 39.822-101.78 90.986zM418.334 627.448c0 26.256 9.956 52.33 29.94 72.351l0.182 0.182c19.802 19.765 45.511 29.575 71.439 29.611 25.892-0.036 51.638-9.846 71.403-29.611 20.093-20.13 30.049-46.204 30.085-72.57-0.036-26.329-9.992-52.44-30.085-72.533v0l-71.403-71.439-71.512 71.512c-20.093 20.057-30.049 46.168-30.049 72.497zM644.504 473.228h-65.203l46.824 46.824c29.575 29.575 44.49 68.595 44.454 107.36 0.036 38.801-14.879 77.821-44.49 107.396-29.247 29.283-67.866 44.016-106.193 43.979-37.306 0.036-74.612-14.149-103.567-41.791l-0.073 0.073-0.073-0.036-1.386-1.058-1.24-1.24c-29.575-29.575-44.454-68.558-44.454-107.287 0-38.765 14.842-77.748 44.454-107.287l46.897-46.933h-65.167c-84.312 0-152.579-68.303-152.579-152.579v-134.163l7.731-7.95 7.257-7.403h135.33c53.461 0.036 99.847 28.007 126.87 69.762 26.986-41.755 73.409-69.725 126.87-69.762h135.257l7.986 8.169 7.002 7.184v134.236c0 84.239-68.267 152.506-152.506 152.506z" />
<glyph unicode="&#xe60c;" glyph-name="apartment" d="M716.8 652.8h51.2v-51.2h-51.2v51.2zM716.8 550.4h51.2v-51.2h-51.2v51.2zM716.8 448h51.2v-51.2h-51.2v51.2zM716.8 345.6h51.2v-51.2h-51.2v51.2zM716.8 140.8h51.2v-51.2h-51.2v51.2zM716.8 243.2h51.2v-51.2h-51.2v51.2zM307.2 652.8h51.2v-51.2h-51.2v51.2zM307.2 550.4h51.2v-51.2h-51.2v51.2zM307.2 448h51.2v-51.2h-51.2v51.2zM307.2 345.6h51.2v-51.2h-51.2v51.2zM307.2 140.8h51.2v-51.2h-51.2v51.2zM307.2 243.2h51.2v-51.2h-51.2v51.2zM204.8 652.8h51.2v-51.2h-51.2v51.2zM204.8 550.4h51.2v-51.2h-51.2v51.2zM204.8 448h51.2v-51.2h-51.2v51.2zM204.8 345.6h51.2v-51.2h-51.2v51.2zM204.8 140.8h51.2v-51.2h-51.2v51.2zM204.8 243.2h51.2v-51.2h-51.2v51.2zM409.6 652.8h51.2v-51.2h-51.2v51.2zM409.6 550.4h51.2v-51.2h-51.2v51.2zM409.6 448h51.2v-51.2h-51.2v51.2zM409.6 345.6h51.2v-51.2h-51.2v51.2zM409.6 140.8h51.2v-51.2h-51.2v51.2zM409.6 243.2h51.2v-51.2h-51.2v51.2zM947.2-12.8h-25.6v691.2c0 39.058-29.024 79.326-66.077 91.677l-241.123 80.374v83.949c0 8.093-3.827 15.709-10.318 20.539-6.493 4.829-14.888 6.306-22.637 3.981l-462.96-138.886c-37.73-11.32-67.285-51.043-67.285-90.434v-742.4h-25.6c-14.138 0-25.6-11.461-25.6-25.6s11.462-25.6 25.6-25.6h921.6c14.139 0 25.6 11.461 25.6 25.6s-11.461 25.6-25.6 25.6zM839.333 721.504c16.259-5.419 31.067-25.965 31.067-43.104v-691.2h-256v809.282l224.933-74.978zM102.4 729.6c0 16.827 14.678 36.557 30.797 41.392l430.003 129.002v-912.794h-460.8v742.4z" />
<glyph unicode="&#xe60d;" glyph-name="certificate" d="M870.4 539.392c0 0 0 0 0 0 0-21.504-8.96-39.424-25.088-53.76-17.92-14.336-25.088-46.592-17.92-68.096 7.168-19.712 5.376-41.216-5.376-59.136s-28.672-28.672-48.384-34.048c-21.504-3.584-44.8-26.88-50.176-50.176 0-1.792-1.792-3.584-1.792-5.376l86.016-193.536c1.792-1.792 0-5.376 0-7.168-1.792-1.792-3.584-3.584-5.376-1.792l-123.648 19.712-77.056-84.224c-1.792-1.792-3.584-1.792-5.376-1.792s-3.584 1.792-5.376 3.584l-69.888 146.944-73.472-148.736c-1.792-1.792-3.584-3.584-5.376-3.584s-3.584 0-5.376 1.792l-68.096 82.432-130.816-16.128c-1.792 0-5.376 0-5.376 1.792-1.792 1.792-1.792 3.584 0 7.168l77.056 177.408c-3.584 7.168-5.376 12.544-7.168 21.504-3.584 21.504-26.88 44.8-50.176 50.176-19.712 3.584-37.632 16.128-48.384 34.048s-10.752 39.424-5.376 59.136c7.168 21.504 0 51.968-17.92 68.096-16.128 14.336-25.088 32.256-25.088 53.76s8.96 39.424 25.088 53.76c17.92 14.336 25.088 46.592 17.92 68.096-7.168 19.712-5.376 41.216 5.376 59.136s28.672 30.464 48.384 34.048c21.504 3.584 44.8 26.88 50.176 50.176 5.376 32.256 34.048 57.344 66.304 57.344 8.96 0 16.128-1.792 25.088-3.584 5.376-1.792 10.752-1.792 17.92-1.792 17.92 0 37.632 7.168 50.176 21.504 14.336 16.128 32.256 25.088 53.76 25.088s39.424-8.96 53.76-25.088c10.752-14.336 32.256-21.504 50.176-21.504 5.376 0 12.544 0 17.92 1.792 7.168 1.792 16.128 3.584 25.088 3.584 34.048 0 60.928-25.088 66.304-57.344 3.584-21.504 26.88-44.8 50.176-50.176 19.712-3.584 37.632-16.128 48.384-34.048s10.752-39.424 5.376-59.136c-7.168-21.504 0-51.968 17.92-68.096 16.128-12.544 25.088-32.256 25.088-51.968zM434.944 71.68l55.552 111.104c-10.752 3.584-21.504 10.752-30.464 21.504-12.544 14.336-32.256 21.504-50.176 21.504-5.376 0-12.544 0-17.92-1.792-7.168-3.584-16.128-3.584-25.088-3.584s-19.712 1.792-26.88 5.376l-44.8-105.728 87.808 10.752c1.792 0 3.584 0 5.376-1.792l46.592-55.552zM744.96 120.064l-50.176 111.104c-10.752-7.168-23.296-10.752-37.632-10.752-8.96 0-16.128 1.792-25.088 3.584-5.376 1.792-10.752 1.792-17.92 1.792-17.92 0-37.632-7.168-50.176-21.504-5.376-5.376-10.752-10.752-16.128-14.336l57.344-120.064 53.76 59.136c1.792 1.792 3.584 1.792 5.376 1.792l78.848-12.544zM818.432 516.096c5.376 5.376 10.752 12.544 10.752 21.504s-3.584 16.128-10.752 21.504c-30.464 26.88-44.8 75.264-30.464 112.896 1.792 7.168 1.792 16.128-1.792 23.296s-10.752 10.752-19.712 12.544c-39.424 7.168-75.264 43.008-82.432 82.432-3.584 17.92-19.712 26.88-35.84 21.504-10.752-3.584-21.504-5.376-30.464-5.376-30.464 0-62.72 12.544-82.432 35.84-10.752 12.544-30.464 12.544-41.216 0-19.712-23.296-51.968-35.84-82.432-35.84-10.752 0-21.504 1.792-32.256 5.376-16.128 5.376-32.256-3.584-35.84-21.504-7.168-39.424-43.008-75.264-82.432-82.432-7.168-1.792-16.128-5.376-19.712-12.544s-3.584-16.128-1.792-23.296c14.336-37.632 0-87.808-30.464-112.896-5.376-5.376-10.752-12.544-10.752-21.504s3.584-16.128 10.752-21.504c30.464-26.88 44.8-75.264 30.464-112.896-1.792-7.168-1.792-16.128 1.792-23.296s10.752-10.752 19.712-12.544c39.424-7.168 75.264-43.008 82.432-82.432 3.584-17.92 19.712-26.88 35.84-21.504 10.752 3.584 19.712 5.376 30.464 5.376 30.464 0 62.72-12.544 82.432-35.84 10.752-12.544 30.464-12.544 41.216 0 19.712 23.296 51.968 35.84 82.432 35.84 10.752 0 21.504-1.792 32.256-5.376 16.128-5.376 32.256 3.584 35.84 21.504 7.168 39.424 43.008 75.264 82.432 82.432 7.168 1.792 16.128 5.376 19.712 12.544s3.584 16.128 1.792 23.296c-14.336 37.632 0 87.808 30.464 112.896zM512 740.096c114.688 0 206.080-93.184 206.080-206.080 0-114.688-93.184-206.080-206.080-206.080-114.688 0-206.080 93.184-206.080 206.080 0 114.688 93.184 206.080 206.080 206.080zM512 369.152c91.392 0 164.864 73.472 164.864 164.864s-73.472 164.864-164.864 164.864c-91.392 0-164.864-73.472-164.864-164.864s73.472-164.864 164.864-164.864z" />
<glyph unicode="&#xe60e;" glyph-name="target" d="M800.512 118.272l71.68-89.6c1.792-1.792 1.792-3.584 0-5.376l-28.672-23.296c-1.792-1.792-3.584-1.792-5.376 0l-71.68 91.392c-75.264-51.968-163.072-80.64-254.464-80.64s-180.992 28.672-256.256 80.64l-73.472-91.392c-1.792-1.792-3.584-1.792-5.376 0l-28.672 23.296c-1.792 1.792-1.792 3.584 0 5.376l73.472 91.392c-96.768 84.224-152.32 206.080-152.32 333.312 0 243.712 198.912 442.624 442.624 442.624s442.624-197.12 442.624-442.624c0-129.024-55.552-250.88-154.112-335.104zM112.384 453.376c0-220.416 179.2-397.824 397.824-397.824 220.416 0 397.824 179.2 397.824 397.824 0 220.416-179.2 397.824-397.824 397.824-220.416 0-397.824-179.2-397.824-397.824zM512 598.528c82.432 0 150.528-66.304 150.528-150.528 0-82.432-66.304-150.528-150.528-150.528-82.432 0-150.528 66.304-150.528 150.528 0 82.432 66.304 150.528 150.528 150.528zM512 342.272c59.136 0 105.728 48.384 105.728 105.728 0 59.136-48.384 105.728-105.728 105.728-59.136 0-105.728-48.384-105.728-105.728 0-59.136 48.384-105.728 105.728-105.728zM512 743.68c163.072 0 295.68-132.608 295.68-295.68s-132.608-295.68-295.68-295.68c-163.072 0-295.68 132.608-295.68 295.68s132.608 295.68 295.68 295.68zM512 195.328c139.776 0 252.672 112.896 252.672 252.672s-112.896 252.672-252.672 252.672c-139.776 0-252.672-112.896-252.672-252.672s112.896-252.672 252.672-252.672z" />
<glyph unicode="&#xe60f;" glyph-name="study" d="M811.011 473.102v-419.484c0-4.53-3.649-8.178-8.178-8.178h-581.668c-4.53 0-8.178 3.649-8.178 8.178v419.61l-86.186 52.088v-334.808c0-4.53-3.649-8.178-8.178-8.178h-34.224c-4.53 0-8.178 3.649-8.178 8.178v365.383l-66.181 39.886c-2.642 1.635-4.152 4.278-3.9 7.423 0.126 3.146 1.887 5.662 4.656 7.046l497.87 239.688c2.391 1.132 4.781 1.132 7.172 0l497.744-239.688c2.768-1.384 4.53-3.9 4.656-7.046s-1.258-5.788-3.9-7.423l-203.073-122.55zM511.937 795.327l-408.664-196.656 409.041-246.609 408.538 246.609-408.789 196.782zM760.433 96.143v346.635l-243.966-147.211c-2.643-1.635-5.788-1.635-8.43 0l-244.47 147.336v-346.761h496.866z" />
<glyph unicode="&#xe610;" glyph-name="pencil" d="M960 659.456c0 130.816-105.728 236.544-236.544 236.544-35.84 0-69.888-7.168-102.144-23.296-1.792-1.792-5.376-3.584-7.168-5.376v0l-498.176-498.176c-3.584-3.584-5.376-8.96-7.168-12.544l-46.592-329.728c-1.792-7.168 1.792-14.336 7.168-19.712 3.584-3.584 10.752-7.168 16.128-7.168 1.792 0 1.792 0 3.584 0l329.728 46.592c5.376 0 8.96 3.584 12.544 7.168l498.176 498.176c0 0 0 0 0 0v0 0c1.792 1.792 3.584 3.584 5.376 7.168 14.336 32.256 23.296 66.304 23.296 102.144v0zM913.408 659.456c0-26.88-5.376-53.76-16.128-77.056l-53.76-53.76c-5.376 136.192-114.688 245.504-249.088 249.088l53.76 53.76c25.088 10.752 50.176 16.128 77.056 16.128 103.936 0 188.16-84.224 188.16-188.16v0zM135.68 188.16l19.712 139.776c8.96 1.792 17.92 1.792 26.88 1.792 116.48 0 211.456-94.976 211.456-211.456 0-8.96 0-17.92-1.792-26.88l-139.776-19.712c0 64.512-51.968 118.272-118.272 118.272zM542.464 725.76c14.336 1.792 26.88 3.584 41.216 3.584 50.176 0 96.768-17.92 132.608-46.592l-367.36-367.36c-43.008 35.84-96.768 57.344-155.904 59.136l349.44 349.44zM382.976 283.136l367.36 367.36c28.672-35.84 46.592-82.432 46.592-132.608 0-14.336-1.792-28.672-3.584-41.216l-349.44-349.44c-1.792 59.136-25.088 112.896-59.136 155.904v0zM130.304 139.776c1.792 0 3.584 0 7.168 0 39.424 0 69.888-32.256 69.888-69.888 0-1.792 0-3.584 0-7.168l-89.6-12.544 12.544 89.6z" />
<glyph unicode="&#xe617;" glyph-name="file-7z" d="M327.424 711.424h-66.304v-66.304h66.304v66.304zM327.424 844.032h-66.304v-66.304h66.304v66.304zM194.816 777.728v-66.304h66.304v66.304h-66.304zM194.816 578.816h66.304v66.304h-66.304v-66.304zM327.424 512.512v66.304h-66.304v-66.304h66.304zM295.168 347.648v-66.304h-66.304v66.304h66.304zM327.424 247.296v232.96h-132.608v-232.96h132.608zM655.36 227.584h103.936v26.88h-48.384c-1.792 0-7.168 0-16.128 0l16.128 16.128 44.8 51.968v21.504h-96.768v-25.088h41.216c5.376 0 10.752 0 14.336 0-3.584-3.584-8.96-8.96-16.128-17.92l-43.008-50.176v-25.088zM535.296 358.4h69.888c-14.336-17.92-25.088-39.424-34.048-62.72s-12.544-46.592-14.336-68.096h30.464c0 14.336 1.792 30.464 7.168 48.384s12.544 34.048 19.712 50.176c8.96 16.128 17.92 28.672 26.88 35.84v23.296h-105.728v-28.672zM146.432 32.256h654.080v118.272h-397.824c-25.088 0-44.8 19.712-44.8 44.8v222.208c0 25.088 19.712 44.8 44.8 44.8h397.824v136.192h-265.216v265.216h-388.864v-829.696zM832.768 460.544h32.256c25.088 0 44.8-19.712 44.8-44.8v-222.208c0-25.088-19.712-44.8-44.8-44.8h-32.256v-150.528h-720.384v896h460.544l258.048-258.048v-175.616zM567.552 854.784v-225.792h225.792l-225.792 225.792z" />
<glyph unicode="&#xe618;" glyph-name="file-ai" d="M474.368 499.968l125.44-383.488h-75.264l-34.048 109.312h-123.648l-34.048-109.312h-73.472l123.648 383.488h89.6zM477.952 277.76l-30.464 94.976c-7.168 23.296-14.336 50.176-19.712 71.68h-1.792c-5.376-21.504-10.752-48.384-17.92-71.68l-30.464-94.976h100.352zM687.616 508.928c25.088 0 39.424-16.128 39.424-37.632s-16.128-37.632-39.424-37.632c-23.296 0-39.424 16.128-39.424 37.632s16.128 37.632 39.424 37.632v0zM723.456 116.48h-71.68v277.76h71.68v-277.76zM185.856 34.048v829.696h388.864v-265.216h265.216v-564.48h-654.080zM606.976 856.576l225.792-225.792h-225.792v225.792zM614.144 896h-460.544v-896h720.384v637.952l-258.048 258.048z" />
<glyph unicode="&#xe61a;" glyph-name="file-cdr" d="M780.094 321.008v40.92h25.398c13.052 0 20.812-0.352 23.634-0.706 5.292-1.058 9.524-3.174 12.346-6.35s4.234-7.76 4.234-13.052c0-4.586-1.058-8.82-3.174-11.994s-5.292-5.292-9.172-6.702c-3.88-1.412-13.404-2.116-28.926-2.116h-23.988zM747.288 228.586h32.454v67.024h6.702c7.408 0 12.698-0.706 16.226-1.764 3.528-1.412 6.702-3.528 9.876-6.702 3.174-3.528 8.82-11.288 17.284-23.634l23.282-34.924h38.802l-19.402 31.394c-7.76 12.346-13.758 21.166-18.344 26.104s-10.23 9.172-17.284 13.404c14.11 2.116 24.692 7.056 31.748 14.816 7.056 8.114 10.582 17.99 10.582 29.984 0 9.524-2.47 17.99-7.056 25.398-4.586 7.056-10.936 12.346-18.696 15.168s-20.108 4.234-37.392 4.234h-68.082v-160.504zM610.772 361.574h14.462c13.052 0 21.87-0.352 26.456-1.412 5.998-1.058 10.936-3.88 14.816-7.408 3.88-3.88 7.056-8.82 9.172-15.522s3.174-16.226 3.174-28.574c0-12.346-1.058-22.224-3.174-29.278s-4.938-12.346-8.466-15.522c-3.528-3.174-7.76-5.292-13.052-6.702-3.88-1.058-10.23-1.412-19.402-1.412h-23.988v106.18zM577.966 389.090v-160.504h60.674c11.994 0 21.518 1.412 28.574 3.528 9.524 2.822 16.932 7.056 22.576 12.698 7.408 7.056 13.406 16.58 17.284 28.22 3.174 9.524 4.938 21.166 4.938 34.218 0 14.816-1.764 27.516-5.292 37.744s-8.466 19.048-15.168 26.104c-6.702 7.056-14.462 11.994-23.988 14.816-6.702 2.116-16.932 3.174-30.338 3.174h-58.91zM511.648 287.496c-2.822-11.64-7.056-20.108-13.406-25.752-5.998-5.292-13.758-8.114-22.224-8.114-11.64 0-21.166 4.586-28.574 13.052-7.408 8.82-10.936 23.282-10.936 43.388 0 19.048 3.88 32.806 11.288 41.272s16.932 12.698 28.926 12.698c8.466 0 15.874-2.116 21.87-7.056s10.23-11.64 11.994-19.754l32.102 7.76c-3.88 13.052-9.172 22.93-16.58 29.632-12.346 11.288-28.22 17.284-47.974 17.284-22.576 0-40.566-7.408-54.324-22.224-13.758-14.462-20.812-35.276-20.812-62.084 0-25.046 6.702-45.152 20.46-59.616s31.394-21.87 52.56-21.87c17.284 0 31.394 4.234 42.684 12.698 11.288 8.82 19.048 21.87 23.988 39.508l-31.394 9.524zM147.25 33.158h653.656v117.82h-397.908c-24.692 0-44.8 20.108-44.8 44.8v221.53c0 24.692 20.108 44.8 44.8 44.8h397.908v135.458h-265.626v265.626h-388.384v-829.682zM833.714 462.11h31.396c24.692 0 44.8-20.108 44.8-44.8v-221.53c0-24.692-20.108-44.8-44.8-44.8h-31.396v-150.98h-719.974v896h461.406l258.57-258.57v-175.32zM568.088 856.138v-225.412h225.412l-225.412 225.412z" />
<glyph unicode="&#xe61b;" glyph-name="arrow-backward" d="M470.784 394.24v-175.616c0-3.584-1.792-5.376-3.584-7.168s-5.376-1.792-7.168 0l-392.448 290.304c-1.792 1.792-3.584 3.584-3.584 5.376s1.792 3.584 3.584 5.376l392.448 290.304c1.792 1.792 5.376 1.792 7.168 0s3.584-3.584 3.584-7.168v-175.616c98.56-3.584 200.704-32.256 283.136-86.016 152.32-100.352 206.080-265.216 206.080-440.832v0c0-3.584-3.584-7.168-7.168-7.168h-30.464c-3.584 0-7.168 3.584-7.168 7.168 0 66.304-48.384 136.192-96.768 179.2-93.184 82.432-224 114.688-345.856 118.272zM890.112 267.008c-60.928 207.872-216.832 311.808-440.832 311.808h-14.336c-3.584 0-7.168 3.584-7.168 7.168v137.984l-290.304-215.040 290.304-215.040v139.776c0 1.792 0 3.584 1.792 5.376s3.584 1.792 5.376 1.792h16.128c139.776-1.792 290.304-34.048 397.824-129.024 16.128-14.336 30.464-28.672 43.008-44.8z" />
<glyph unicode="&#xe624;" glyph-name="note3" d="M341.996 180.745c-1.164-0.635-2.54-0.952-3.916-0.952-2.222 0-4.127 0.106-6.243 0.635-14.286 3.386-22.963 17.672-19.577 31.535 0.423 2.434 1.164 4.444 1.481 6.455 0.952 10.9-2.011 22.116-9.841 30.054-8.042 8.042-19.577 10.794-29.842 9.947-2.011-0.423-3.81-1.27-5.291-1.27-14.286-2.328-27.725 7.514-29.948 21.8s7.302 27.831 21.27 30.583c2.751 0.635 5.291 1.27 8.783 1.799 27.091 2.011 53.652-5.397 73.124-24.868 19.365-19.365 27.303-45.821 24.868-72.806-0.423-4.55-1.587-8.466-2.54-13.016-2.54-10.688-11.534-18.413-22.222-19.895zM139.029 821.183v-745.838h745.838v369.956c0 14.604 11.746 26.35 26.35 26.35s26.35-11.746 26.35-26.35v-396.306c0-13.333-9.841-24.339-22.752-26.138-0.952-0.423-2.117-0.635-3.174-0.635h-798.855c-14.604 0-26.35 11.746-26.35 26.35v798.855c0 14.604 11.746 26.35 26.35 26.35h396.306c14.604 0 26.35-11.746 26.35-26.35s-11.746-26.35-26.35-26.35h-369.956zM248.449 167.411c-6.561 0-12.911 2.751-17.672 7.514-5.079 5.079-7.514 12.064-7.514 19.471l9.524 161.274c0.529 6.243 2.963 12.064 7.514 16.085l479.483 479.483c4.868 4.868 10.9 7.514 17.884 7.514 6.667 0 13.122-2.751 17.884-7.514l151.538-151.538c4.868-4.868 7.514-11.006 7.514-17.884 0-6.667-2.751-13.122-7.514-17.884l-479.588-479.905c-4.339-4.339-10.37-7.196-16.403-7.090l-162.649-9.419zM818.833 647.105l34.71 34.709-115.875 115.875-34.71-34.71 115.875-115.875zM783.064 611.337l-115.875 115.875-384.665-384.665-7.302-123.177 123.177 7.302 384.665 384.665z" />
<glyph unicode="&#xe626;" glyph-name="arrow-down-double" d="M512 82.432l-412.16 412.16-35.84-39.424 430.080-433.664h35.84l430.080 433.664-35.84 37.632zM512 462.336l-412.16 412.16-35.84-39.424 430.080-433.664h35.84l430.080 433.664-35.84 37.632z" />
<glyph unicode="&#xe629;" glyph-name="drag-horizontal" d="M394.484 873.566h26.138c4.339 0 7.831-3.492 7.831-7.831v-835.575c0-4.339-3.492-7.831-7.831-7.831h-26.138c-4.339 0-7.831 3.492-7.831 7.831v835.575c0 4.339 3.492 7.831 7.831 7.831zM498.931 873.566h26.138c4.339 0 7.831-3.492 7.831-7.831v-835.575c0-4.339-3.492-7.831-7.831-7.831h-26.138c-4.339 0-7.831 3.492-7.831 7.831v835.575c0 4.339 3.492 7.831 7.831 7.831zM603.378 873.566h26.138c4.339 0 7.831-3.492 7.831-7.831v-835.575c0-4.339-3.492-7.831-7.831-7.831h-26.138c-4.339 0-7.831 3.492-7.831 7.831v835.575c0 4.339 3.492 7.831 7.831 7.831z" />
<glyph unicode="&#xe62a;" glyph-name="drag-vertical" d="M94.16 364.453h835.575c4.339 0 7.831-3.492 7.831-7.831v-26.138c0-4.339-3.492-7.831-7.831-7.831h-835.575c-4.339 0-7.831 3.492-7.831 7.831v26.138c0 4.339 3.492 7.831 7.831 7.831zM94.16 468.9h835.575c4.339 0 7.831-3.492 7.831-7.831v-26.138c0-4.339-3.492-7.831-7.831-7.831h-835.575c-4.339 0-7.831 3.492-7.831 7.831v26.138c0 4.339 3.492 7.831 7.831 7.831zM94.16 573.347h835.575c4.339 0 7.831-3.492 7.831-7.831v-26.138c0-4.339-3.492-7.831-7.831-7.831h-835.575c-4.339 0-7.831 3.492-7.831 7.831v26.138c0 4.339 3.492 7.831 7.831 7.831z" />
<glyph unicode="&#xe62b;" glyph-name="magic-wand" d="M614.144 560.896c-16.128 0-26.88 12.544-26.88 26.88 0 60.928-50.176 111.104-111.104 111.104-16.128 0-26.88 12.544-26.88 26.88 0 16.128 12.544 26.88 26.88 26.88 60.928 0 111.104 50.176 111.104 111.104 0 16.128 12.544 26.88 26.88 26.88 16.128 0 26.88-12.544 26.88-26.88 0-60.928 50.176-111.104 111.104-111.104 16.128 0 26.88-12.544 26.88-26.88 0-16.128-12.544-26.88-26.88-26.88-60.928 0-111.104-50.176-111.104-111.104 0-16.128-12.544-26.88-26.88-26.88zM567.552 727.552c17.92-12.544 34.048-28.672 46.592-46.592 12.544 17.92 28.672 34.048 46.592 46.592-17.92 12.544-34.048 28.672-46.592 46.592-12.544-17.92-28.672-34.048-46.592-46.592zM150.016 421.12c14.336 0 26.88 10.752 26.88 26.88 0 8.96 7.168 17.92 17.92 17.92 14.336 0 26.88 10.752 26.88 26.88 0 14.336-10.752 26.88-26.88 26.88-8.96 0-17.92 7.168-17.92 17.92 0 14.336-10.752 26.88-26.88 26.88-14.336 0-26.88-10.752-26.88-26.88 0-8.96-7.168-17.92-17.92-17.92-14.336 0-26.88-10.752-26.88-26.88 0-14.336 10.752-26.88 26.88-26.88 8.96 0 17.92-7.168 17.92-17.92 0-14.336 10.752-26.88 26.88-26.88zM927.744 152.32c14.336-14.336 21.504-32.256 21.504-51.968s-7.168-37.632-21.504-51.968l-26.88-26.88c-14.336-14.336-32.256-21.504-51.968-21.504s-37.632 7.168-51.968 21.504l-492.8 492.8c-14.336 14.336-21.504 32.256-21.504 51.968s7.168 37.632 21.504 51.968l26.88 26.88c14.336 14.336 32.256 21.504 51.968 21.504s37.632-7.168 51.968-21.504l492.8-492.8zM406.272 487.424l53.76 53.76-64.512 64.512c-3.584 3.584-8.96 5.376-12.544 5.376-5.376 0-8.96-1.792-12.544-5.376l-26.88-26.88c-7.168-7.168-7.168-19.712 0-26.88l64.512-64.512zM499.456 501.76l-53.76-53.76 388.864-388.864c3.584-3.584 8.96-5.376 12.544-5.376 5.376 0 8.96 1.792 12.544 5.376l26.88 26.88c7.168 7.168 7.168 19.712 0 26.88l-388.864 388.864zM271.872 680.96c0-16.128-12.544-26.88-26.88-26.88-16.128 0-26.88 12.544-26.88 26.88 0 35.84-28.672 64.512-64.512 64.512-16.128 0-26.88 12.544-26.88 26.88 0 16.128 12.544 26.88 26.88 26.88 35.84 0 64.512 28.672 64.512 64.512 0 16.128 12.544 26.88 26.88 26.88 16.128 0 26.88-12.544 26.88-26.88 0-35.84 28.672-64.512 64.512-64.512 16.128 0 26.88-12.544 26.88-26.88 0-16.128-12.544-26.88-26.88-26.88-35.84 0-64.512-28.672-64.512-64.512zM228.864 774.144c5.376-5.376 10.752-10.752 16.128-16.128 5.376 5.376 10.752 10.752 16.128 16.128-5.376 5.376-10.752 10.752-16.128 16.128-5.376-5.376-10.752-10.752-16.128-16.128zM244.992 188.16c-16.128 0-26.88 12.544-26.88 26.88 0 35.84-28.672 64.512-64.512 64.512-16.128 0-26.88 12.544-26.88 26.88 0 16.128 12.544 26.88 26.88 26.88 35.84 0 64.512 28.672 64.512 64.512 0 16.128 12.544 26.88 26.88 26.88 16.128 0 26.88-12.544 26.88-26.88 0-35.84 28.672-64.512 64.512-64.512 16.128 0 26.88-12.544 26.88-26.88 0-16.128-12.544-26.88-26.88-26.88-35.84 0-64.512-28.672-64.512-64.512 0-16.128-12.544-26.88-26.88-26.88zM228.864 308.224c5.376-5.376 10.752-10.752 16.128-16.128 5.376 5.376 10.752 10.752 16.128 16.128-5.376 5.376-10.752 10.752-16.128 16.128-5.376-5.376-10.752-10.752-16.128-16.128z" />
<glyph unicode="&#xe62c;" glyph-name="file-csv" d="M796.928 229.376h34.048l57.344 161.28h-34.048l-39.424-118.272-41.216 118.272h-34.048l57.344-161.28zM590.848 281.344c1.792-17.92 8.96-32.256 19.712-41.216s26.88-14.336 46.592-14.336c14.336 0 25.088 1.792 34.048 5.376s16.128 10.752 21.504 17.92c5.376 8.96 7.168 16.128 7.168 25.088 0 10.752-1.792 17.92-7.168 25.088-3.584 7.168-10.752 12.544-17.92 16.128s-19.712 8.96-34.048 12.544c-16.128 3.584-25.088 7.168-30.464 10.752-3.584 3.584-5.376 5.376-5.376 10.752 0 3.584 1.792 7.168 5.376 10.752 5.376 3.584 12.544 5.376 21.504 5.376s16.128-1.792 19.712-5.376c5.376-3.584 7.168-10.752 8.96-17.92l32.256 1.792c0 14.336-5.376 26.88-16.128 35.84s-25.088 12.544-44.8 12.544c-12.544 0-23.296-1.792-32.256-5.376s-16.128-8.96-19.712-16.128c-5.376-7.168-7.168-14.336-7.168-23.296 0-12.544 5.376-23.296 14.336-32.256 7.168-7.168 19.712-12.544 35.84-16.128 12.544-3.584 21.504-5.376 25.088-7.168 5.376-1.792 8.96-3.584 12.544-7.168 1.792-3.584 3.584-5.376 3.584-10.752s-1.792-10.752-7.168-16.128c-5.376-5.376-12.544-7.168-23.296-7.168-8.96 0-17.92 1.792-23.296 7.168s-10.752 12.544-12.544 23.296l-32.256-3.584zM531.712 288.512c-3.584-12.544-7.168-19.712-12.544-25.088s-14.336-8.96-21.504-8.96c-12.544 0-21.504 5.376-28.672 12.544-7.168 8.96-10.752 23.296-10.752 43.008s3.584 32.256 10.752 41.216c7.168 8.96 16.128 12.544 28.672 12.544 8.96 0 16.128-1.792 21.504-7.168s10.752-12.544 12.544-19.712l32.256 7.168c-3.584 12.544-8.96 23.296-16.128 30.464-12.544 10.752-28.672 17.92-48.384 17.92-23.296 0-41.216-7.168-53.76-21.504-14.336-14.336-21.504-35.84-21.504-62.72 0-25.088 7.168-44.8 19.712-59.136 14.336-14.336 32.256-21.504 51.968-21.504 17.92 0 32.256 3.584 43.008 12.544s19.712 21.504 23.296 39.424l-32.256 8.96zM146.432 34.048h654.080v118.272h-397.824c-25.088 0-44.8 19.712-44.8 44.8v222.208c0 25.088 19.712 44.8 44.8 44.8h397.824v136.192h-265.216v265.216h-388.864v-829.696zM832.768 462.336h32.256c25.088 0 44.8-19.712 44.8-44.8v-222.208c0-25.088-19.712-44.8-44.8-44.8h-32.256v-150.528h-720.384v896h460.544l258.048-258.048v-175.616zM567.552 856.576v-225.792h225.792l-225.792 225.792z" />
<glyph unicode="&#xe62d;" glyph-name="glide-vertical" d="M512 51.968l218.624 218.624c1.792 1.792 3.584 1.792 5.376 1.792s3.584 0 5.376-1.792l19.712-19.712c3.584-3.584 3.584-7.168 0-10.752l-234.752-236.544c-1.792-1.792-3.584-1.792-5.376-1.792h-19.712c-1.792 0-3.584 0-5.376 1.792l-234.752 236.544c-3.584 3.584-3.584 7.168 0 10.752l19.712 21.504c1.792 1.792 3.584 1.792 5.376 1.792s3.584 0 5.376-1.792l218.624-218.624zM512 845.824l-218.624-218.624c-1.792-1.792-3.584-1.792-5.376-1.792s-3.584 0-5.376 1.792l-19.712 19.712c-3.584 3.584-3.584 7.168 0 10.752l234.752 236.544c1.792 1.792 3.584 1.792 5.376 1.792h19.712c1.792 0 3.584 0 5.376-1.792l234.752-234.752c3.584-3.584 3.584-7.168 0-10.752l-19.712-21.504c-1.792-1.792-3.584-1.792-5.376-1.792s-3.584 0-5.376 1.792l-218.624 218.624zM601.6 449.792c0-50.176-41.216-89.6-89.6-89.6-50.176 0-89.6 41.216-89.6 89.6 0 50.176 41.216 89.6 89.6 89.6 50.176 0 89.6-41.216 89.6-89.6zM463.616 449.792c0-26.88 21.504-46.592 46.592-46.592 26.88 0 46.592 21.504 46.592 46.592 0 26.88-21.504 46.592-46.592 46.592-26.88 0-46.592-21.504-46.592-46.592z" />
<glyph unicode="&#xe62e;" glyph-name="hamburger" d="M64 740.096h896v-46.592h-896zM64 469.504h896v-44.8h-896zM64 200.704h896v-44.8h-896z" />
<glyph unicode="&#xe62f;" glyph-name="file-doc" d="M590.845 802.805v80.637h-60.926l-467.698-80.637v-709.611l464.115-80.637h62.718v78.845h324.342c25.087 0 44.799 19.711 44.799 44.799v623.598c0 25.087-19.711 44.799-44.799 44.799h-324.342zM590.845 700.665v-41.215h263.416v41.215h-263.416zM590.845 609.276v-41.215h263.416v41.215h-263.416zM590.845 517.886h263.416v-41.215h-263.416v41.215zM590.845 426.497h263.416v-41.215h-263.416v41.215zM590.845 335.108h263.416v-41.215h-263.416v41.215zM590.845 243.718h263.416v-41.215h-263.416v41.215zM590.845 772.342h313.591c16.127 0 30.463-12.544 30.463-30.463v-593.135c0-16.127-12.544-30.463-30.463-30.463h-313.591v652.269zM87.308 116.49v659.437l421.108 75.261h53.758v-809.96h-57.342l-417.524 75.261zM273.671 591.356c19.711 1.792 39.423 1.792 57.342 3.584 12.544-68.094 26.879-136.188 41.215-204.282 10.752 69.886 25.087 141.564 35.839 211.45 19.711 0 41.215 1.792 60.926 3.584-23.295-98.557-43.007-197.114-68.094-295.671-16.127-8.96-43.007 0-62.718-1.792-12.544 68.094-28.671 134.397-41.215 200.698-12.544-66.302-26.879-130.813-41.215-195.322-19.711 1.792-39.423 1.792-59.134 3.584-16.127 89.597-35.839 177.403-51.966 267 17.919 0 34.047 1.792 51.966 1.792 10.752-64.51 21.503-129.020 30.463-193.531 14.336 66.302 28.671 132.605 43.007 198.906v0 0z" />
<glyph unicode="&#xe630;" glyph-name="notebook" d="M233.845 873.672h695.361c4.55 0 8.36-3.704 8.36-8.36v-834.517c0-4.55-3.704-8.36-8.36-8.36h-692.397c-80.636 0-150.374 37.885-150.374 125.506v578.321c0 87.832 59.578 147.411 147.411 147.411zM468.877 822.242h-163.073v-308.368l80.848 68.043c3.175 2.751 7.831 2.646 11.006-0.212l71.219-64.869v305.51zM137.864 238.101c27.619 19.471 62.224 27.091 95.981 27.091h652.291v557.050h-365.829v-402.973c0-3.386-1.905-6.243-4.973-7.619s-6.455-0.847-8.995 1.481l-115.453 105.187-122.86-103.388c-2.54-2.117-5.82-2.54-8.889-1.164-2.963 1.376-4.868 4.233-4.868 7.514v401.068h-20.635c-58.732 0-95.981-37.25-95.981-95.981v-488.16zM886.136 73.864v139.792h-652.397c-50.795 0-95.24-21.059-95.346-76.722 5.821-51.747 53.335-63.176 98.309-63.176h649.328z" />
<glyph unicode="&#xe631;" glyph-name="arrow-double-left" d="M558.592 860.16l-37.632 35.84-433.664-430.080v-35.84l433.664-430.080 35.84 35.84-410.368 412.16zM899.072 896l-431.872-430.080v-35.84l431.872-430.080 37.632 35.84-412.16 412.16 412.16 412.16z" />
<glyph unicode="&#xe635;" glyph-name="help" d="M472.793 297.996h26.138c3.704 0 6.667-2.963 6.667-6.667v-52.276c0-3.704-2.963-6.667-6.667-6.667h-26.138c-3.704 0-6.667 2.963-6.667 6.667v52.276c0 3.704 2.963 6.667 6.667 6.667zM511.947 663.613c66.774 0 124.236-40.742 124.236-111.114 0-47.726-50.266-89.843-89.209-109.103-28.996-14.71-41.271-57.039-41.271-86.775v-13.016c0-3.704-2.963-6.667-6.667-6.667h-26.138c-3.704 0-6.667 2.963-6.667 6.667v13.016c0 45.292 20.107 100.531 63.070 122.119 23.916 12.064 67.409 43.81 67.409 73.758 0 48.996-39.472 71.641-84.764 71.641-32.805 0-84.764-1.905-84.764-45.609 0-3.704-2.963-6.667-6.667-6.667h-26.138c-3.704 0-6.667 2.963-6.667 6.667 0 70.478 66.774 84.976 124.236 84.976zM511.947 873.672c113.654 0 220.534-44.34 300.96-124.659s124.659-187.306 124.659-300.96c0-113.654-44.34-220.534-124.659-300.96-80.425-80.32-187.306-124.659-300.96-124.659s-220.534 44.34-300.96 124.659c-80.425 80.32-124.659 187.306-124.659 300.96s44.34 220.534 124.659 300.854c80.425 80.32 187.306 124.659 300.96 124.764zM783.382 176.618c72.488 72.488 112.489 168.893 112.489 271.435s-40.001 198.946-112.489 271.435c-72.488 72.489-168.893 112.489-271.435 112.489s-198.946-40.001-271.435-112.489c-72.489-72.488-112.489-168.892-112.489-271.435s40.001-198.946 112.489-271.435c72.488-72.488 168.892-112.489 271.435-112.489s198.946 39.895 271.435 112.489z" />
<glyph unicode="&#xe638;" glyph-name="file-dwg" d="M823.804 288.515h34.047v-17.92c-5.376-3.584-10.752-7.168-16.128-8.96-7.168-1.792-12.544-3.584-17.92-3.584-12.544 0-23.296 3.584-30.463 12.544s-12.544 21.504-12.544 39.423c0 16.128 3.584 28.672 12.544 37.631 7.168 8.96 17.92 12.544 30.463 12.544 8.96 0 16.128-1.792 21.504-7.168 5.376-3.584 8.96-10.752 12.544-17.92l30.463 5.376c-3.584 14.336-8.96 25.088-19.712 32.255s-25.088 12.544-43.007 12.544c-14.336 0-25.088-1.792-35.839-7.168-12.544-7.168-21.504-16.128-28.672-26.88-7.168-12.544-8.96-25.088-8.96-41.215 0-14.336 3.584-26.88 8.96-39.423s14.336-21.504 26.88-28.672c12.544-7.168 25.088-10.752 41.215-10.752 12.544 0 23.296 1.792 35.839 7.168s21.504 10.752 26.88 16.128v59.135h-64.511v-25.088h-1.792zM572.927 234.755h32.255l28.672 111.102 28.672-111.102h32.255l35.839 148.734h-30.463l-23.296-103.934-25.088 103.934h-35.839l-26.88-102.142-21.504 102.142h-30.463l34.047-148.734zM425.985 358.401h12.544c12.544 0 19.712 0 25.088-1.792s10.752-3.584 14.336-7.168c3.584-3.584 7.168-8.96 8.96-14.336 1.792-7.168 3.584-14.336 3.584-26.88s-1.792-19.712-3.584-26.88c-1.792-7.168-5.376-10.752-7.168-14.336-3.584-3.584-7.168-5.376-12.544-5.376-3.584-1.792-8.96-1.792-17.92-1.792h-21.504v98.558zM395.522 383.489v-148.734h55.551c10.752 0 19.712 1.792 26.88 3.584 8.96 3.584 16.128 7.168 21.504 12.544 7.168 7.168 12.544 14.336 16.128 26.88 3.584 8.96 5.376 19.712 5.376 32.255 0 14.336-1.792 25.088-5.376 34.047s-7.168 17.92-14.336 23.296c-5.376 7.168-12.544 10.752-21.504 14.336-7.168 1.792-16.128 3.584-28.672 3.584h-55.551zM144.645 34.054h654.070v118.27h-397.818c-25.088 0-44.799 19.712-44.799 44.799v222.204c0 25.088 19.712 44.799 44.799 44.799h397.818v136.19h-265.212v265.213h-388.859v-829.684zM830.972 462.336h32.255c25.088 0 44.799-19.712 44.799-44.799v-222.204c0-25.088-19.712-44.799-44.799-44.799h-32.255v-150.525h-720.374v895.987h460.537l258.044-258.045v-175.613zM565.759 856.57v-225.788h225.788l-225.788 225.788z" />
<glyph unicode="&#xe639;" glyph-name="file-gif" d="M719.869 229.38h32.255v68.095h68.095v26.88h-68.095v37.631h77.055v26.88h-109.31v-161.277zM648.19 229.38h32.255v161.277h-32.255v-161.277zM542.463 288.515h37.631v-19.712c-5.376-3.584-10.752-7.168-17.92-10.752-7.168-1.792-14.336-3.584-19.712-3.584-14.336 0-25.088 5.376-34.047 14.336s-12.544 23.296-12.544 43.007c0 17.92 3.584 30.463 12.544 39.423s19.712 12.544 34.047 12.544c8.96 0 16.128-1.792 23.296-7.168s10.752-10.752 12.544-17.92l32.255 5.376c-3.584 14.336-10.752 26.88-21.504 34.047-10.752 8.96-26.88 12.544-46.591 12.544-16.128 0-28.672-3.584-37.631-8.96-12.544-7.168-23.296-16.128-30.463-30.463-7.168-12.544-10.752-28.672-10.752-44.799 0-14.336 3.584-30.463 8.96-43.007 7.168-12.544 16.128-23.296 28.672-30.463s26.88-10.752 43.007-10.752c12.544 0 26.88 1.792 39.423 7.168s23.296 10.752 30.463 17.92v64.511h-69.887v-26.88zM148.229 34.054h654.070v118.27h-397.818c-25.088 0-44.799 19.712-44.799 44.799v222.204c0 25.088 19.712 44.799 44.799 44.799h397.818v136.19h-265.212v265.213h-388.859v-829.684zM834.556 462.336h32.255c25.088 0 44.799-19.712 44.799-44.799v-222.204c0-25.088-19.712-44.799-44.799-44.799h-32.255v-150.525h-720.373v895.987h460.537l258.045-258.045v-175.613zM569.343 856.57v-225.788h225.788l-225.788 225.788z" />
<glyph unicode="&#xe63a;" glyph-name="file-iso" d="M327.424 711.424v-66.304h-66.304v66.304h66.304zM327.424 844.032v-66.304h-66.304v66.304h66.304zM194.816 777.728h66.304v-66.304h-66.304v66.304zM194.816 578.816v66.304h66.304v-66.304h-66.304zM327.424 512.512h-66.304v66.304h66.304v-66.304zM295.168 347.648v-66.304h-66.304v66.304h66.304zM327.424 247.296v232.96h-132.608v-232.96h132.608zM714.496 308.224v0c0-17.92 3.584-32.256 12.544-41.216s19.712-14.336 32.256-14.336c14.336 0 23.296 5.376 32.256 14.336s12.544 23.296 12.544 41.216c0 17.92-3.584 32.256-12.544 41.216s-19.712 14.336-32.256 14.336c-12.544 0-23.296-5.376-32.256-14.336s-12.544-23.296-12.544-41.216zM680.448 306.432c0-25.088 7.168-46.592 21.504-60.928s32.256-21.504 57.344-21.504c23.296 0 43.008 7.168 57.344 21.504s21.504 34.048 21.504 60.928c0 26.88-7.168 46.592-21.504 60.928s-34.048 21.504-57.344 21.504c-12.544 0-25.088-1.792-34.048-7.168-7.168-3.584-14.336-8.96-21.504-14.336-7.168-7.168-10.752-14.336-14.336-21.504-5.376-10.752-7.168-25.088-7.168-41.216v0zM520.96 279.552c1.792-17.92 8.96-32.256 19.712-41.216s26.88-14.336 46.592-14.336c14.336 0 25.088 1.792 34.048 5.376s16.128 10.752 21.504 17.92c5.376 8.96 7.168 16.128 7.168 25.088 0 10.752-1.792 17.92-7.168 25.088-3.584 7.168-10.752 12.544-17.92 16.128s-19.712 8.96-34.048 12.544c-16.128 3.584-25.088 7.168-30.464 10.752-3.584 3.584-5.376 5.376-5.376 10.752 0 3.584 1.792 7.168 5.376 10.752 5.376 3.584 12.544 5.376 21.504 5.376s16.128-1.792 19.712-5.376c5.376-3.584 7.168-10.752 8.96-17.92l32.256 1.792c0 14.336-5.376 26.88-16.128 35.84s-25.088 12.544-44.8 12.544c-12.544 0-23.296-1.792-32.256-5.376s-16.128-8.96-19.712-16.128c-5.376-7.168-7.168-14.336-7.168-23.296 0-12.544 5.376-23.296 14.336-32.256 7.168-7.168 19.712-12.544 35.84-16.128 12.544-3.584 21.504-5.376 25.088-7.168 5.376-1.792 8.96-3.584 12.544-7.168 1.792-3.584 3.584-5.376 3.584-10.752s-1.792-10.752-7.168-16.128c-5.376-5.376-12.544-7.168-23.296-7.168-8.96 0-17.92 1.792-23.296 7.168s-10.752 12.544-12.544 23.296l-32.256-3.584zM458.24 227.584h32.256v161.28h-32.256v-161.28zM146.432 32.256h654.080v118.272h-397.824c-25.088 0-44.8 19.712-44.8 44.8v222.208c0 25.088 19.712 44.8 44.8 44.8h397.824v136.192h-265.216v265.216h-388.864v-829.696zM832.768 460.544h32.256c25.088 0 44.8-19.712 44.8-44.8v-222.208c0-25.088-19.712-44.8-44.8-44.8h-32.256v-150.528h-720.384v896h460.544l258.048-258.048v-175.616zM567.552 854.784v-225.792h225.792l-225.792 225.792z" />
<glyph unicode="&#xe63b;" glyph-name="file-jpg" d="M789.76 292.096h37.632v-19.712c-5.376-3.584-10.752-7.168-17.92-10.752-7.168-1.792-14.336-3.584-19.712-3.584-14.336 0-25.088 5.376-34.048 14.336s-12.544 23.296-12.544 43.008c0 17.92 3.584 30.464 12.544 39.424s19.712 12.544 34.048 12.544c8.96 0 16.128-1.792 23.296-7.168s10.752-10.752 12.544-17.92l32.256 5.376c-3.584 14.336-10.752 26.88-21.504 34.048-10.752 8.96-26.88 12.544-46.592 12.544-16.128 0-28.672-3.584-37.632-8.96-12.544-7.168-23.296-16.128-30.464-30.464-7.168-12.544-10.752-28.672-10.752-44.8 0-14.336 3.584-30.464 8.96-43.008 7.168-12.544 16.128-23.296 28.672-30.464s26.88-10.752 43.008-10.752c12.544 0 26.88 1.792 39.424 7.168s23.296 10.752 30.464 17.92v64.512h-69.888v-26.88zM590.848 365.568h16.128c12.544 0 19.712 0 23.296-1.792 5.376 0 8.96-3.584 12.544-7.168s5.376-8.96 5.376-14.336c0-5.376-1.792-8.96-3.584-12.544s-5.376-5.376-10.752-7.168c-3.584-1.792-12.544-1.792-25.088-1.792h-17.92v46.592zM558.592 232.96h32.256v60.928h21.504c14.336 0 25.088 1.792 34.048 1.792 5.376 1.792 10.752 3.584 16.128 7.168s10.752 8.96 14.336 16.128c3.584 7.168 5.376 14.336 5.376 25.088 0 12.544-3.584 23.296-8.96 32.256s-14.336 12.544-23.296 16.128c-5.376 1.792-17.92 1.792-37.632 1.792h-51.968v-161.28zM485.12 394.24v-103.936c0-12.544-1.792-21.504-5.376-25.088s-8.96-7.168-14.336-7.168c-7.168 0-12.544 3.584-16.128 8.96-1.792 3.584-3.584 10.752-3.584 19.712l-30.464-3.584c0-16.128 5.376-30.464 12.544-39.424 8.96-8.96 21.504-12.544 35.84-12.544 12.544 0 25.088 3.584 32.256 8.96 8.96 5.376 14.336 12.544 16.128 23.296 1.792 7.168 3.584 17.92 3.584 30.464v102.144h-32.256zM150.016 34.048h654.080v118.272h-397.824c-25.088 0-44.8 19.712-44.8 44.8v222.208c0 25.088 19.712 44.8 44.8 44.8h397.824v136.192h-265.216v265.216h-388.864v-829.696zM836.352 462.336h32.256c25.088 0 44.8-19.712 44.8-44.8v-222.208c0-25.088-19.712-44.8-44.8-44.8h-32.256v-150.528h-720.384v896h460.544l258.048-258.048v-175.616zM571.136 856.576v-225.792h225.792l-225.792 225.792z" />
<glyph unicode="&#xe63c;" glyph-name="arrow-double-right" d="M465.408 860.16l412.16-412.16-412.16-412.16 39.424-35.84 433.664 430.080v35.84l-433.664 430.080zM558.592 465.92l-433.664 430.080-37.632-35.84 410.368-412.16-412.16-412.16 39.424-35.84 433.664 430.080z" />
<glyph unicode="&#xe640;" glyph-name="file-pdf" d="M185.856 32.256v829.696h388.864v-265.216h265.216v-564.48h-654.080zM606.976 854.784l225.792-225.792h-225.792v225.792zM614.144 894.208h-460.544v-896h720.384v637.952l-258.048 258.048zM802.304 378.112c-12.544 12.544-37.632 17.92-78.848 17.92-26.88 0-59.136-1.792-94.976-7.168-16.128 8.96-32.256 17.92-44.8 30.464-34.048 32.256-60.928 75.264-78.848 123.648 1.792 5.376 1.792 8.96 3.584 12.544 0 0 19.712 107.52 14.336 143.36 0 5.376-1.792 7.168-1.792 10.752l-1.792 3.584c-5.376 12.544-14.336 25.088-30.464 23.296h-8.96c-17.92 0-32.256-8.96-35.84-23.296-12.544-43.008 0-105.728 21.504-188.16l-5.376-12.544c-16.128-37.632-34.048-75.264-51.968-109.312l-1.792-3.584c-17.92-34.048-34.048-64.512-48.384-89.6l-14.336-8.96c-1.792 0-26.88-14.336-34.048-17.92-51.968-30.464-86.016-66.304-91.392-93.184-1.792-8.96 0-19.712 8.96-25.088l14.336-7.168c7.168-3.584 12.544-5.376 19.712-5.376 37.632 0 78.848 46.592 139.776 148.736 68.096 21.504 145.152 41.216 213.248 50.176 51.968-28.672 116.48-50.176 155.904-50.176 7.168 0 12.544 0 17.92 1.792 7.168 1.792 14.336 7.168 17.92 12.544 7.168 12.544 8.96 28.672 7.168 44.8 0 5.376-5.376 10.752-8.96 14.336v0 0zM250.368 180.992c7.168 17.92 34.048 55.552 73.472 87.808 1.792 1.792 8.96 7.168 14.336 12.544-41.216-66.304-68.096-91.392-87.808-100.352v0zM483.328 718.592c12.544 0 17.92-30.464 19.712-57.344 0-28.672-5.376-48.384-14.336-62.72-7.168 21.504-10.752 55.552-10.752 78.848 0 0 0 43.008 5.376 43.008v0 0zM413.44 335.104c8.96 14.336 16.128 30.464 25.088 46.592 21.504 41.216 34.048 71.68 44.8 98.56 19.712-35.84 44.8-68.096 75.264-93.184 3.584-3.584 7.168-7.168 12.544-8.96-59.136-12.544-111.104-26.88-155.904-43.008v0 0zM789.76 338.688c-3.584-1.792-14.336-3.584-21.504-3.584-21.504 0-48.384 10.752-86.016 26.88 14.336 1.792 26.88 1.792 39.424 1.792 21.504 0 28.672 0 50.176-5.376s21.504-16.128 17.92-17.92v0 0z" />
<glyph unicode="&#xe641;" glyph-name="link2" d="M562.176 281.344c-46.592 0-91.392 17.92-125.44 51.968-3.584 3.584-3.584 8.96 0 12.544l25.088 25.088c3.584 3.584 8.96 3.584 12.544 0 48.384-48.384 125.44-48.384 173.824 0l220.416 220.416c48.384 48.384 48.384 125.44 0 173.824l-41.216 41.216c-48.384 48.384-125.44 48.384-173.824 0l-155.904-155.904c-3.584-3.584-8.96-3.584-12.544 0l-25.088 25.088c-3.584 3.584-3.584 8.96 0 12.544l155.904 155.904c68.096 68.096 180.992 68.096 249.088 0l41.216-41.216c68.096-68.096 68.096-180.992 0-249.088l-220.416-220.416c-34.048-34.048-77.056-51.968-125.44-51.968zM280.832 0c-46.592 0-91.392 17.92-125.44 51.968l-41.216 41.216c-68.096 68.096-68.096 180.992 0 249.088l220.416 220.416c68.096 68.096 180.992 68.096 249.088 0l41.216-41.216c3.584-3.584 3.584-8.96 0-12.544l-25.088-25.088c-3.584-3.584-8.96-3.584-12.544 0l-41.216 41.216c-48.384 48.384-125.44 48.384-173.824 0l-220.416-220.416c-48.384-48.384-48.384-125.44 0-173.824l41.216-41.216c23.296-23.296 53.76-35.84 87.808-35.84 32.256 0 64.512 12.544 87.808 35.84l146.944 146.944c3.584 3.584 8.96 3.584 12.544 0l25.088-25.088c3.584-3.584 3.584-8.96 0-12.544l-146.944-146.944c-34.048-34.048-77.056-51.968-125.44-51.968z" />
<glyph unicode="&#xe642;" glyph-name="file-png" d="M820.224 288.512h37.632v-19.712c-5.376-3.584-10.752-7.168-17.92-10.752-7.168-1.792-14.336-3.584-19.712-3.584-14.336 0-25.088 5.376-34.048 14.336s-12.544 23.296-12.544 43.008c0 17.92 3.584 30.464 12.544 39.424s19.712 12.544 34.048 12.544c8.96 0 16.128-1.792 23.296-7.168s10.752-10.752 12.544-17.92l32.256 5.376c-3.584 14.336-10.752 26.88-21.504 34.048-10.752 8.96-26.88 12.544-46.592 12.544-16.128 0-28.672-3.584-37.632-8.96-12.544-7.168-23.296-16.128-30.464-30.464-7.168-12.544-10.752-28.672-10.752-44.8 0-14.336 3.584-30.464 8.96-43.008 7.168-12.544 16.128-23.296 28.672-30.464s26.88-10.752 43.008-10.752c12.544 0 26.88 1.792 39.424 7.168s23.296 10.752 30.464 17.92v64.512h-69.888v-26.88zM576.512 229.376h30.464v105.728l64.512-105.728h32.256v161.28h-30.464v-107.52l-66.304 107.52h-32.256v-161.28zM451.072 361.984h16.128c12.544 0 19.712 0 23.296-1.792 5.376 0 8.96-3.584 12.544-7.168s5.376-8.96 5.376-14.336c0-5.376-1.792-8.96-3.584-12.544s-5.376-5.376-10.752-7.168c-3.584-1.792-12.544-1.792-25.088-1.792h-17.92v46.592zM418.816 229.376h32.256v60.928h21.504c14.336 0 25.088 1.792 34.048 1.792 5.376 1.792 10.752 3.584 16.128 7.168s10.752 8.96 14.336 16.128c3.584 7.168 5.376 14.336 5.376 25.088 0 12.544-3.584 23.296-8.96 32.256s-14.336 12.544-23.296 16.128c-5.376 1.792-17.92 1.792-37.632 1.792h-51.968v-161.28zM148.224 34.048h654.080v118.272h-397.824c-25.088 0-44.8 19.712-44.8 44.8v222.208c0 25.088 19.712 44.8 44.8 44.8h397.824v136.192h-265.216v265.216h-388.864v-829.696zM834.56 462.336h32.256c25.088 0 44.8-19.712 44.8-44.8v-222.208c0-25.088-19.712-44.8-44.8-44.8h-32.256v-150.528h-720.384v896h460.544l258.048-258.048v-175.616zM569.344 856.576v-225.792h225.792l-225.792 225.792z" />
<glyph unicode="&#xe644;" glyph-name="file-ppt" d="M286.208 560.896c19.712 1.792 44.8 5.376 59.136-14.336 10.752-19.712 10.752-46.592 1.792-66.304-10.752-21.504-37.632-19.712-57.344-21.504-1.792 34.048-1.792 68.096-1.792 102.144v0zM225.28 616.448c-1.792-107.52-1.792-216.832 0-326.144 19.712-1.792 41.216-3.584 60.928-5.376 0 39.424 0 78.848 0 118.272 25.088 0 51.968-1.792 75.264 8.96 64.512 32.256 77.056 129.024 32.256 182.784-44.8 41.216-112.896 16.128-166.656 19.712v0zM660.736 693.504c0-44.8 0-89.6 0-132.608 44.8 0 89.6 0 134.4 0-3.584 69.888-62.72 129.024-134.4 132.608zM589.056 663.040c16.128 3.584 34.048 7.168 50.176 10.752 1.792-44.8 1.792-87.808 1.792-132.608 44.8 0 89.6 0 134.4 0-3.584-44.8-23.296-87.808-62.72-111.104-35.84-25.088-82.432-25.088-121.856-12.544v245.504zM589.056 804.608v80.64h-60.928l-467.712-80.64v-709.632l464.128-80.64h62.72v78.848h324.352c25.088 0 44.8 19.712 44.8 44.8v623.616c0 25.088-19.712 44.8-44.8 44.8h-324.352zM85.504 120.064v659.456l421.12 75.264h53.76v-809.984h-57.344l-417.536 75.264zM589.056 775.936h313.6c16.128 0 30.464-12.544 30.464-30.464v-593.152c0-16.128-12.544-30.464-30.464-30.464h-313.6v652.288zM589.056 358.4h243.712v-41.216h-243.712v41.216zM589.056 267.008h243.712v-41.216h-243.712v41.216z" />
<glyph unicode="&#xe645;" glyph-name="grid" d="M184.064 238.336c66.304 0 120.064-53.76 120.064-120.064s-53.76-120.064-120.064-120.064c-66.304 0-120.064 53.76-120.064 120.064s53.76 120.064 120.064 120.064zM184.064 44.8c41.216 0 73.472 32.256 73.472 73.472s-32.256 73.472-73.472 73.472c-41.216 0-73.472-32.256-73.472-73.472s32.256-73.472 73.472-73.472zM184.064 894.208c66.304 0 120.064-53.76 120.064-120.064s-53.76-120.064-120.064-120.064c-66.304 0-120.064 53.76-120.064 120.064s53.76 120.064 120.064 120.064zM184.064 700.672c41.216 0 73.472 32.256 73.472 73.472s-32.256 73.472-73.472 73.472c-41.216 0-73.472-32.256-73.472-73.472s32.256-73.472 73.472-73.472zM184.064 566.272c66.304 0 120.064-53.76 120.064-120.064s-53.76-120.064-120.064-120.064c-66.304 0-120.064 53.76-120.064 120.064s53.76 120.064 120.064 120.064zM184.064 372.736c41.216 0 73.472 32.256 73.472 73.472s-32.256 73.472-73.472 73.472c-41.216 0-73.472-32.256-73.472-73.472s32.256-73.472 73.472-73.472zM512 236.544c66.304 0 120.064-53.76 120.064-120.064s-53.76-120.064-120.064-120.064c-66.304 0-120.064 53.76-120.064 120.064s53.76 120.064 120.064 120.064zM512 43.008c41.216 0 73.472 32.256 73.472 73.472s-32.256 73.472-73.472 73.472c-41.216 0-73.472-32.256-73.472-73.472s32.256-73.472 73.472-73.472zM512 892.416c66.304 0 120.064-53.76 120.064-120.064s-53.76-120.064-120.064-120.064c-66.304 0-120.064 53.76-120.064 120.064s53.76 120.064 120.064 120.064zM512 698.88c41.216 0 73.472 32.256 73.472 73.472s-32.256 73.472-73.472 73.472c-41.216 0-73.472-32.256-73.472-73.472s32.256-73.472 73.472-73.472zM512 564.48c66.304 0 120.064-53.76 120.064-120.064s-53.76-120.064-120.064-120.064c-66.304 0-120.064 53.76-120.064 120.064s53.76 120.064 120.064 120.064zM512 370.944c41.216 0 73.472 32.256 73.472 73.472s-32.256 73.472-73.472 73.472c-41.216 0-73.472-32.256-73.472-73.472s32.256-73.472 73.472-73.472zM839.936 234.752c66.304 0 120.064-53.76 120.064-120.064s-53.76-120.064-120.064-120.064c-66.304 0-120.064 53.76-120.064 120.064s53.76 120.064 120.064 120.064zM839.936 41.216c41.216 0 73.472 32.256 73.472 73.472s-32.256 73.472-73.472 73.472c-41.216 0-73.472-32.256-73.472-73.472s32.256-73.472 73.472-73.472zM839.936 652.288c-66.304 0-120.064 53.76-120.064 120.064s53.76 120.064 120.064 120.064c66.304 0 120.064-53.76 120.064-120.064s-53.76-120.064-120.064-120.064zM839.936 845.824c-41.216 0-73.472-32.256-73.472-73.472s32.256-73.472 73.472-73.472c41.216 0 73.472 32.256 73.472 73.472s-32.256 73.472-73.472 73.472zM839.936 564.48c66.304 0 120.064-53.76 120.064-120.064s-53.76-120.064-120.064-120.064c-66.304 0-120.064 53.76-120.064 120.064s53.76 120.064 120.064 120.064zM839.936 370.944c41.216 0 73.472 32.256 73.472 73.472s-32.256 73.472-73.472 73.472c-41.216 0-73.472-32.256-73.472-73.472s32.256-73.472 73.472-73.472z" />
<glyph unicode="&#xe64a;" glyph-name="file-psd" d="M667.904 197.12c34.048 0 48.384 12.544 48.384 32.256s-12.544 30.464-50.176 43.008c-59.136 19.712-82.432 50.176-82.432 84.224 0 51.968 43.008 91.392 112.896 91.392 34.048 0 62.72-8.96 78.848-17.92l-14.336-51.968c-12.544 7.168-37.632 16.128-62.72 16.128-26.88 0-41.216-12.544-41.216-30.464s14.336-26.88 51.968-39.424c53.76-19.712 78.848-46.592 80.64-87.808 0-51.968-43.008-91.392-121.856-91.392-35.84 0-69.888 8.96-91.392 21.504l14.336 53.76c17.92-10.752 50.176-21.504 77.056-21.504v0 0zM329.216 360.192c8.96-1.792 21.504-3.584 37.632-3.584 57.344 0 91.392 26.88 91.392 73.472 0 44.8-32.256 68.096-84.224 68.096-21.504 0-35.84-1.792-43.008-3.584v-136.192zM492.288 523.264c25.088-19.712 41.216-51.968 41.216-87.808 0-37.632-12.544-69.888-35.84-91.392-30.464-28.672-77.056-43.008-130.816-43.008-14.336 0-26.88 0-37.632 1.792v-150.528h-75.264v394.24c26.88 5.376 64.512 8.96 116.48 8.96 55.552 0 96.768-10.752 123.648-32.256v0 0zM185.856 34.048v829.696h388.864v-265.216h265.216v-564.48h-654.080zM606.976 856.576l225.792-225.792h-225.792v225.792zM614.144 896h-460.544v-896h720.384v637.952l-258.048 258.048z" />
<glyph unicode="&#xe64d;" glyph-name="arrow-double-up" d="M494.080 872.704l-430.080-431.872 35.84-37.632 412.16 412.16 412.16-413.952 35.84 39.424-430.080 431.872zM494.080 494.592l-430.080-433.664 35.84-37.632 412.16 412.16 412.16-412.16 35.84 37.632-430.080 433.664z" />
<glyph unicode="&#xe64e;" glyph-name="file-rar" d="M318.464 711.424h-66.304v-66.304h66.304v66.304zM318.464 844.032h-66.304v-66.304h66.304v66.304zM185.856 777.728v-66.304h66.304v66.304h-66.304zM185.856 578.816h66.304v66.304h-66.304v-66.304zM318.464 512.512v66.304h-66.304v-66.304h66.304zM284.416 347.648v-66.304h-66.304v66.304h66.304zM318.464 247.296v232.96h-132.608v-232.96h132.608zM771.84 318.976v41.216h25.088c12.544 0 21.504 0 23.296 0 5.376-1.792 8.96-3.584 12.544-7.168s3.584-7.168 3.584-12.544c0-5.376-1.792-8.96-3.584-12.544s-5.376-5.376-8.96-7.168c-3.584-1.792-12.544-1.792-28.672-1.792h-23.296zM739.584 225.792h32.256v66.304h7.168c7.168 0 12.544 0 16.128-1.792s7.168-3.584 10.752-7.168c3.584-3.584 8.96-10.752 17.92-23.296l23.296-34.048h39.424l-19.712 32.256c-7.168 12.544-14.336 21.504-17.92 26.88-5.376 5.376-10.752 8.96-17.92 12.544 14.336 1.792 25.088 7.168 32.256 14.336 7.168 8.96 10.752 17.92 10.752 30.464 0 8.96-1.792 17.92-7.168 25.088s-10.752 12.544-17.92 14.336c-7.168 3.584-19.712 3.584-37.632 3.584h-68.096v-161.28zM655.36 288.512h-44.8l21.504 59.136 21.504-59.136zM714.496 225.792l-64.512 161.28h-34.048l-62.72-161.28h34.048l12.544 35.84h64.512l14.336-35.84h34.048zM433.152 318.976v41.216h25.088c12.544 0 21.504 0 23.296 0 5.376-1.792 8.96-3.584 12.544-7.168s3.584-7.168 3.584-12.544c0-5.376-1.792-8.96-3.584-12.544s-5.376-5.376-8.96-7.168c-3.584-1.792-12.544-1.792-28.672-1.792h-23.296zM400.896 225.792h32.256v66.304h7.168c7.168 0 12.544 0 16.128-1.792s7.168-3.584 10.752-7.168c3.584-3.584 8.96-10.752 17.92-23.296l23.296-34.048h39.424l-19.712 32.256c-7.168 12.544-14.336 21.504-17.92 26.88-5.376 5.376-10.752 8.96-17.92 12.544 14.336 1.792 25.088 7.168 32.256 14.336 7.168 8.96 10.752 17.92 10.752 30.464 0 8.96-1.792 17.92-7.168 25.088s-10.752 12.544-17.92 14.336c-7.168 3.584-19.712 3.584-37.632 3.584h-68.096v-161.28zM148.224 30.464h654.080v118.272h-397.824c-25.088 0-44.8 19.712-44.8 44.8v222.208c0 25.088 19.712 44.8 44.8 44.8h397.824v136.192h-265.216v265.216h-388.864v-829.696zM834.56 458.752h32.256c25.088 0 44.8-19.712 44.8-44.8v-222.208c0-25.088-19.712-44.8-44.8-44.8h-32.256v-150.528h-720.384v896h460.544l258.048-258.048v-175.616zM569.344 852.992v-225.792h225.792l-225.792 225.792z" />
<glyph unicode="&#xe64f;" glyph-name="global" d="M512 896c0 0 0 0 0 0s0 0 0 0 0 0 0 0c-247.296 0-446.208-200.704-446.208-448s200.704-448 446.208-448c0 0 0 0 0 0s0 0 0 0 0 0 0 0c247.296 0 448 200.704 448 448s-200.704 448-448 448zM529.92 627.2c48.384 1.792 93.184 7.168 137.984 17.92 12.544-51.968 21.504-112.896 23.296-180.992h-161.28v161.28zM529.92 663.040v193.536c48.384-12.544 96.768-77.056 129.024-177.408-41.216-10.752-84.224-16.128-129.024-17.92v0zM494.080 856.576v-193.536c-44.8 1.792-87.808 7.168-129.024 17.92 32.256 98.56 80.64 164.864 129.024 177.408zM494.080 627.2v-161.28h-163.072c1.792 66.304 8.96 127.232 23.296 180.992 44.8-10.752 91.392-17.92 139.776-17.92v0zM295.168 465.92h-195.328c3.584 91.392 37.632 177.408 93.184 243.712 39.424-21.504 82.432-39.424 127.232-53.76-14.336-57.344-23.296-121.856-25.088-189.952v0zM295.168 430.080c1.792-68.096 10.752-132.608 25.088-189.952-44.8-14.336-86.016-32.256-127.232-53.76-55.552 66.304-89.6 150.528-93.184 243.712h195.328zM331.008 430.080h163.072v-161.28c-48.384-1.792-94.976-7.168-139.776-17.92-12.544 51.968-21.504 112.896-23.296 180.992v0zM494.080 232.96v-193.536c-48.384 12.544-98.56 77.056-129.024 177.408 41.216 10.752 84.224 16.128 129.024 17.92v0zM529.92 39.424v193.536c44.8-1.792 87.808-7.168 129.024-17.92-30.464-98.56-80.64-163.072-129.024-177.408zM529.92 268.8v161.28h161.28c-1.792-66.304-8.96-127.232-23.296-180.992-44.8 10.752-91.392 17.92-137.984 17.92v0zM727.040 430.080h197.12c-3.584-91.392-37.632-177.408-93.184-243.712-39.424 21.504-82.432 39.424-127.232 53.76 14.336 57.344 23.296 121.856 25.088 189.952v0zM727.040 465.92c-1.792 68.096-10.752 132.608-25.088 189.952 44.8 14.336 87.808 32.256 127.232 53.76 55.552-66.304 89.6-150.528 93.184-243.712h-197.12zM805.888 736.512c-35.84-19.712-73.472-34.048-112.896-46.592-21.504 68.096-50.176 121.856-86.016 157.696 77.056-17.92 145.152-57.344 197.12-112.896zM415.232 847.616c-34.048-35.84-64.512-91.392-84.224-157.696-39.424 12.544-77.056 26.88-111.104 46.592 53.76 53.76 120.064 93.184 197.12 111.104v0zM218.112 157.696c35.84 19.712 73.472 34.048 111.104 46.592 21.504-66.304 50.176-121.856 84.224-157.696-75.264 17.92-143.36 57.344-197.12 111.104zM608.768 44.8c34.048 35.84 64.512 91.392 86.016 159.488 39.424-12.544 77.056-26.88 112.896-46.592-53.76-53.76-121.856-93.184-197.12-112.896v0z" />
<glyph unicode="&#xe650;" glyph-name="file-txt" d="M780.8 232.96h32.256v132.608h46.592v26.88h-127.232v-26.88h48.384v-132.608zM571.136 232.96h39.424l35.84 53.76 35.84-53.76h39.424l-55.552 84.224 50.176 77.056h-37.632l-32.256-48.384-32.256 48.384h-37.632l50.176-77.056-55.552-84.224zM477.952 232.96h32.256v132.608h46.592v26.88h-127.232v-26.88h48.384v-132.608zM148.224 32.256h654.080v118.272h-397.824c-25.088 0-44.8 19.712-44.8 44.8v222.208c0 25.088 19.712 44.8 44.8 44.8h397.824v136.192h-265.216v265.216h-388.864v-829.696zM834.56 460.544h32.256c25.088 0 44.8-19.712 44.8-44.8v-222.208c0-25.088-19.712-44.8-44.8-44.8h-32.256v-150.528h-720.384v896h460.544l258.048-258.048v-175.616zM569.344 854.784v-225.792h225.792l-225.792 225.792z" />
<glyph unicode="&#xe651;" glyph-name="dashboard2" d="M511.936 872.832c113.664 0 220.544-43.808 300.96-124.224 80.32-80.416 124.672-186.88 124.672-300.64 0-234.816-191.008-424.864-425.632-424.864-113.664 0-220.544 43.488-300.96 123.904-80.32 80.416-124.544 186.56-124.672 300.224 0 113.664 44.224 220.544 124.672 300.96s187.296 124.672 300.96 124.672zM516.512 63.168c212.288 2.432 379.488 171.328 379.488 384.032 0 102.656-39.904 199.040-112.48 271.648-72.48 72.48-168.992 112.608-271.552 112.608-102.656 0-199.040-39.776-271.648-112.384s-112.48-168.8-112.48-271.424c0-102.528 39.904-198.624 112.48-271.232s169.12-111.744 271.648-111.744c1.696 0 3.296-0.544 4.544-1.472zM511.936 754.72c82.016 0 159.168-31.968 217.152-89.952s89.952-135.136 89.952-217.152c0-4.224-3.488-7.712-7.712-7.712h-26.048c-4.224 0-7.712 3.488-7.712 7.712 0 70.912-27.616 137.568-77.792 187.744s-116.832 77.792-187.744 77.792c-70.912 0-137.568-27.616-187.744-77.792s-77.792-116.832-77.792-187.744c0-4.224-3.488-7.712-7.712-7.712h-26.048c-4.224 0-7.712 3.488-7.712 7.712 0 82.016 31.968 159.040 89.952 217.056s135.136 89.952 217.152 89.952zM498.176 452.928c16.192 4.768 34.496 0.96 46.784-11.104 18.304-18.208 18.4-47.84 0.32-66.144-8.896-8.992-20.64-13.856-33.216-13.856-12.384 0-24.128 4.864-32.896 13.536-8.896 8.768-13.76 20.544-13.856 33.024 0 5.504 0.96 10.784 2.848 15.968l-75.872 87.84c-2.752 3.264-2.432 8.16 0.832 11.008l19.68 17.024c3.264 2.752 8.16 2.432 10.912-0.832l74.592-86.336zM515.648 404.864c2.016 2.016 2.016 5.408 0 7.424-1.056 0.96-2.336 1.6-3.712 1.6s-2.752-0.544-3.712-1.6c-1.056-1.056-1.6-2.336-1.6-3.712s0.64-2.752 1.6-3.712c1.92-1.92 5.504-1.92 7.424 0z" />
<glyph unicode="&#xe652;" glyph-name="file-xls" d="M365.056 616.448v0c-17.92-41.216-37.632-82.432-50.176-125.44-12.544 41.216-28.672 80.64-44.8 120.064-21.504-1.792-44.8-1.792-66.304-3.584 23.296-51.968 48.384-103.936 71.68-155.904-26.88-50.176-51.968-102.144-78.848-154.112 23.296-1.792 44.8-1.792 66.304-1.792 16.128 41.216 35.84 78.848 48.384 120.064 12.544-44.8 34.048-86.016 50.176-127.232 25.088-1.792 48.384-3.584 73.472-5.376-28.672 57.344-57.344 112.896-84.224 170.24 28.672 55.552 55.552 111.104 82.432 166.656-23.296-1.792-46.592-1.792-68.096-3.584v0zM592.64 802.816v80.64h-60.928l-467.712-80.64v-709.632l464.128-80.64h62.72v78.848h324.352c25.088 0 44.8 19.712 44.8 44.8v623.616c0 25.088-19.712 44.8-44.8 44.8h-324.352zM89.088 118.272v659.456l421.12 75.264h53.76v-809.984h-57.344l-417.536 75.264zM592.64 774.144h313.6c16.128 0 30.464-12.544 30.464-30.464v-593.152c0-16.128-12.544-30.464-30.464-30.464h-313.6v652.288zM592.64 713.216h80.64v-71.68h-80.64v71.68zM714.496 267.008h141.568v-71.68h-141.568v71.68zM592.64 267.008h80.64v-71.68h-80.64v71.68zM714.496 378.112h141.568v-71.68h-141.568v71.68zM592.64 378.112h80.64v-71.68h-80.64v71.68zM714.496 489.216h141.568v-71.68h-141.568v71.68zM592.64 489.216h80.64v-71.68h-80.64v71.68zM714.496 600.32h141.568v-71.68h-141.568v71.68zM592.64 600.32h80.64v-71.68h-80.64v71.68zM714.496 711.424h141.568v-71.68h-141.568v71.68z" />
<glyph unicode="&#xe653;" glyph-name="bookmark" d="M511.947 213.867l-189.105-189.105c-2.222-2.222-5.503-2.963-8.466-1.693s-4.762 3.916-4.762 7.196v835.681c0 4.233 3.492 7.725 7.725 7.725h389.216c4.233 0 7.725-3.492 7.725-7.725v-835.681c0-3.175-1.799-5.926-4.762-7.196s-6.138-0.635-8.466 1.693l-189.105 189.105zM350.991 832.189v-720.652l155.453 155.453c3.069 2.963 7.937 2.963 11.006 0l155.453-155.453v720.652h-321.807z" />
<glyph unicode="&#xe654;" glyph-name="file-zip" d="M739.584 361.984h16.128c12.544 0 19.712 0 23.296-1.792 5.376 0 8.96-3.584 12.544-7.168s5.376-8.96 5.376-14.336c0-5.376-1.792-8.96-3.584-12.544s-5.376-5.376-10.752-7.168c-3.584-1.792-12.544-1.792-25.088-1.792h-17.92v46.592zM707.328 229.376h32.256v60.928h21.504c14.336 0 25.088 1.792 34.048 1.792 5.376 1.792 10.752 3.584 16.128 7.168s10.752 8.96 14.336 16.128c3.584 7.168 5.376 14.336 5.376 25.088 0 12.544-3.584 23.296-8.96 32.256s-14.336 12.544-23.296 16.128c-5.376 1.792-17.92 1.792-37.632 1.792h-51.968v-161.28zM637.44 229.376h32.256v161.28h-32.256v-161.28zM479.744 229.376h130.816v26.88h-91.392l87.808 107.52v25.088h-118.272v-26.88h75.264l-84.224-103.936v-28.672zM325.632 711.424h-66.304v-66.304h66.304v66.304zM325.632 844.032h-66.304v-66.304h66.304v66.304zM193.024 777.728v-66.304h66.304v66.304h-66.304zM193.024 578.816h66.304v66.304h-66.304v-66.304zM325.632 512.512v66.304h-66.304v-66.304h66.304zM291.584 347.648v-66.304h-66.304v66.304h66.304zM325.632 247.296v232.96h-132.608v-232.96h132.608zM148.224 32.256h654.080v118.272h-397.824c-25.088 0-44.8 19.712-44.8 44.8v222.208c0 25.088 19.712 44.8 44.8 44.8h397.824v136.192h-265.216v265.216h-388.864v-829.696zM834.56 460.544h32.256c25.088 0 44.8-19.712 44.8-44.8v-222.208c0-25.088-19.712-44.8-44.8-44.8h-32.256v-150.528h-720.384v896h460.544l258.048-258.048v-175.616zM569.344 854.784v-225.792h225.792l-225.792 225.792z" />
<glyph unicode="&#xe655;" glyph-name="globe" d="M511.947 873.566c234.714 0 425.618-190.904 425.618-425.618s-190.904-425.618-425.618-425.618c-234.714 0-425.618 190.904-425.618 425.618s190.904 425.618 425.618 425.618zM886.242 520.33c-8.889 46.033-26.032 88.997-49.843 127.41 4.339-7.937 6.561-16.614 5.079-25.504-3.174-18.202-18.942-27.619-35.662-31.747-9.101-2.328-17.143-5.079-25.926-8.466-18.836-7.196-29.524-7.725-50.054-5.185-17.037 2.117-31.006 8.042-46.351 15.344-4.233 2.011-16.72 8.466-22.222 7.937-9.841-5.715-21.059-8.254-32.276-7.196-1.164-2.011-2.54-4.974-3.174-6.138l-1.587-3.492c-4.127-9.313-10.9-14.604-18.624-20.953-1.481-1.164-8.572-6.455-9.101-8.254l0.423-5.185c0.847-12.064 5.185-69.42 14.604-77.568 8.783-7.725 32.17-11.746 42.964-8.254 15.344 4.974 66.774 1.27 83.071-3.069 21.588-5.715 44.234-72.171 51.959-92.489 0.318-0.635 0.318-0.741 0.529-1.481 0.635-2.434 5.079-8.466 6.667-10.688 6.773-9.63 13.122-19.895 15.556-30.795 3.174 9.841 5.185 21.482 6.772 31.641 4.339 22.646 9.524 53.441 22.222 72.594l5.185 7.514c12.805 18.73 37.356 54.71 38.413 77.038 0 2.54 0.529 4.868 1.481 7.090zM832.801 653.349c-38.943 60.531-94.5 109.315-160.109 139.898 0.952-0.847 1.905-1.693 2.857-2.646 10.159-10.688 9.841-24.657 5.397-37.885-7.937-23.387-32.594-60.425-48.784-79.155 0-0.106-0.106-0.106-0.106-0.212 6.349 3.492 13.333 6.032 20.423 8.148 3.174 0.847 3.386 0.741 4.762 4.022 3.598 7.408 8.466 13.228 16.615 15.979 7.62 2.54 15.344 0.952 22.116-3.069 9.524-5.609 13.439-13.651 16.403-24.021 0.212-0.741 0.318-2.117 0.635-2.751 0.952-0.635 3.81-0.847 4.973-1.058 11.534-1.905 21.482-4.762 32.17-9.207 1.375-0.529 4.762-2.117 6.243-2.222 4.55 1.693 9.524 4.656 13.757 6.878 13.545 7.725 28.361 15.45 43.282 5.715 7.090-4.656 14.18-11.112 19.471-18.519zM657.030 800.125c-25.186 10.37-51.642 18.202-79.155 23.069-0.212-6.455 0.318-13.651 5.503-15.344 9.735-2.751 17.884-6.349 26.456-11.534 4.656-2.857 4.656-1.905 10.476-0.318 11.218 3.174 24.657 6.138 36.614 4.127zM416.706 740.441c-0.106 4.233 0.847 8.36 3.174 12.381 6.032 10.476-6.349 46.245-13.333 62.964-105.611-30.054-193.973-104.976-240.958-204.237 0-0.423 0-0.741 0-1.164-1.058-12.805 1.799-62.436 8.042-73.336 0.635-0.635 1.27-1.27 1.799-1.905-0.318 25.82 12.064 52.805 34.604 66.034 11.323 6.667 24.127 8.36 36.614 4.339 11.534-3.704 21.376-11.746 29.312-21.059 16.72 42.117 89.737 121.908 116.087 146.247 6.878 6.349 15.556 8.995 24.445 9.841zM192.257 494.085c1.587-3.916 3.598-7.62 6.243-9.947 7.302-6.455 25.186-13.757 39.049-18.942-0.529 3.598-1.481 7.196-2.54 10.582-1.481 4.233-2.646 8.466-3.598 12.911-7.831-2.434-15.979-2.963-24.551-1.27-5.715 1.058-10.582 3.492-14.71 6.772zM136.594 515.356c-3.916-21.27-5.821-42.752-5.926-64.446 0.318-0.847 0.423-1.693 0.423-2.54 0-148.575 86.563-282.97 219.688-345.405-1.905 4.444-3.916 8.783-5.82 13.228-8.254 19.577-20.213 45.398-21.588 66.562-0.529 7.514 0.106 15.132 0.847 22.646 2.011 21.164 3.386 36.509-15.662 50.583-28.043 20.741-65.398 61.059-68.044 98.521 0 18.73 1.587 41.588 5.821 60.742-24.021 7.831-58.944 20.847-75.557 35.133-13.969 12.064-19.26 27.197-23.915 44.551-0.635 2.646-2.117 8.677-2.434 9.841-3.069 2.751-5.715 6.455-7.831 10.582zM334.165 437.576c-11.958-9.947-28.572-17.249-43.387-22.752-4.127-14.498-8.042-44.869-7.090-56.933 1.799-21.906 33.969-53.758 50.371-65.822 32.594-24.127 36.614-52.805 33.334-89.949-0.318-4.868-1.164-11.006-0.847-15.768 1.27-14.392 12.487-38.731 18.202-52.065 0.423-0.847 0.741-1.693 1.164-2.434 4.339 12.487 13.969 20.423 29.736 30.054 6.138 3.81 12.169 7.831 18.096 11.958 20.529 14.392 54.816 108.468 64.34 134.712 2.646 7.725 5.503 17.037 9.101 24.127 3.386 6.984 7.302 11.958 12.17 17.355-1.905 0.212-3.704 0.424-4.868 0.529-11.112 0.952-21.8 2.328-32.699 4.868-38.731 9.207-67.939 34.815-96.404 61.165-11.218 10.37-30.689 21.906-46.456 21.906-2.646 0-3.28-0.212-4.868-1.058zM283.794 458.952c8.254 3.28 17.143 7.62 22.222 12.169 9.313 8.36 21.588 11.534 33.863 11.534 27.091 0 56.933-15.662 76.616-33.757 22.011-20.213 46.985-43.387 77.038-50.583 8.783-2.328 17.355-3.175 26.35-4.127 21.059-2.011 41.165-5.926 47.726-29.63 5.079-18.096-0.952-30.159-13.122-43.176-2.434-2.434-4.762-4.868-6.243-7.831-2.857-6.561-5.185-13.651-7.725-20.423-14.286-38.943-46.985-131.855-80.742-155.771-6.667-4.762-13.545-8.783-20.529-13.333-11.429-7.090-12.275-4.55-11.534-16.615 0.635-10.159 1.799-21.27 2.222-31.747 26.244-5.609 53.017-8.889 79.896-8.995 0.741 0.212 1.587 0.318 2.434 0.318 203.285 0 369.85 159.687 380.961 360.22-3.28-5.079-6.667-10.159-10.053-15.132l-4.656-6.984c-7.831-12.17-12.593-41.165-15.45-56.298-2.434-13.333-4.656-28.678-9.524-41.271-8.677-22.646-39.26-67.621-66.034-67.621-2.54 0-4.762 0.424-7.514 1.164-7.514 2.328-13.651 7.937-16.931 15.026-7.62 16.297-0.847 44.234 6.138 60.319-0.847 3.492-6.667 11.852-8.572 14.604-5.079 7.408-10.265 14.921-13.016 23.599-5.185 16.931-18.096 47.091-27.619 64.235-13.439 1.693-44.763 4.762-51.536 2.963-25.715-8.572-65.398-0.952-86.139 16.931-24.339 21.059-27.725 78.097-29.63 108.151l-0.423 5.291c-1.27 21.059 10.688 33.863 25.82 45.821 1.905 1.587 5.185 4.233 6.243 5.291l1.481 2.963c4.127 9.313 9.101 17.567 15.662 23.493-12.487 3.386-24.021 10.265-27.408 23.175-5.503 18.096 7.62 33.546 19.26 45.609 1.693 1.693 3.492 3.492 5.185 5.609 10.053 11.64 25.504 33.334 34.71 50.9-0.318-0.106-0.635-0.212-0.952-0.318-17.884-4.974-28.89-4.339-44.446 4.656-5.715 3.174-10.053 5.397-16.509 7.196-31.535 9.101-37.885 34.393-37.25 62.647-7.302 0.423-14.71 0.635-22.012 0.635-20.529 0-40.848-2.011-61.165-5.291 9.63-24.762 18.836-57.779 12.17-82.541 5.397-8.783 10.37-17.143 7.725-27.725l-1.164-5.397c-0.423-2.117-1.481-3.704-3.28-4.973l-6.138-4.339c-8.254-4.868-17.461-4.339-26.985-3.916-2.646 0.212-9.207 0.635-12.699 0.318-22.434-21.588-100.002-107.833-103.177-128.786-2.751-22.54-15.662-46.774-41.694-46.668l-3.28 0.212c1.481-4.022 1.905-8.466 1.905-13.651 0-6.667 0.741-10.582 3.069-16.931 3.704-10.37 5.503-20.635 5.926-31.323zM674.173 644.037c2.011-0.423 4.127-0.952 6.138-1.587-0.952 1.058-1.905 2.117-2.857 3.386-1.058-0.635-2.117-1.164-3.28-1.799zM718.725 626.258c3.598-1.375 7.302-2.646 11.112-3.492-3.81 1.376-7.302 2.54-11.112 3.492zM254.057 539.060c-4.868 8.889-13.545 22.116-20.423 23.81-7.831-4.656-11.958-15.238-12.593-24.233-0.212-1.587-0.318-4.444-0.106-6.984 2.011 0.952 4.127 2.011 5.291 2.646 9.524 4.762 18.73 7.831 27.937 4.868z" />
<glyph unicode="&#xe656;" glyph-name="dislike, thumbs-down" d="M98.741 456.385c-18.625 19.234-35.181 44.068-38.834 70.728-0.731 1.218-1.096 2.556-1.218 4.14-2.191 32.015 7.181 62.571 28.243 86.311-13.147 19.599-18.018 43.215-18.018 66.711 0 33.356 11.93 64.764 38.224 85.214-1.947 5.965-3.652 11.809-4.625 18.137-5.478 36.765 9.981 67.198 39.808 88.501 53.564 38.346 84.604 58.676 151.924 58.676 19.843 0 39.686 0.975 59.164 1.34 19.599 0.853 39.077 1.46 58.676 1.46 16.312 0 33.964-0.122 50.155-2.922 9.618-1.703 18.991-3.531 28.73-5.721 11.565-2.922 21.303-4.018 33.356-4.869 36.399-2.678 79.614-12.538 116.622-20.696 1.825 3.896 4.14 7.547 6.818 11.078 8.887 11.321 21.424 15.703 35.547 15.825l223.626 1.825c31.165 0.244 57.58-23.615 58.676-55.389l-0.609-352.423c-3.896-30.556-30.434-54.658-61.355-54.658h-137.437c-10.347 0-20.209 2.678-29.096 7.425-5.356-4.018-11.321-6.697-17.774-8.4-22.765-8.156-45.893-28.974-51.371-53.077-9.496-41.877-30.921-70.241-56.849-102.623-14.243-17.896-27.877-35.303-39.808-54.902-16.922-27.755-74.257-135.978-76.814-161.543 0-2.313 0.122-4.26 0.487-6.94 2.678-35.668 4.14-80.588-21.060-109.197-12.296-13.878-28.852-21.060-47.355-21.912-24.59-1.218-47.355 8.4-64.642 25.686-35.181 35.181-47.355 98.484-45.771 146.447 0.975 28.974 6.087 51.737 18.137 77.789 1.096 2.313 3.531 7.181 4.018 10.103 6.209 29.824 10.713 61.477 15.581 92.032-56.849-7.181-176.393-20.33-214.254-0.122-39.929 21.424-54.049 57.824-54.049 100.797 0 13.634 6.697 31.287 12.904 45.043zM687.207 882.458c-0.731-3.044-0.487-7.425 0.122-9.86l66.223-340.128c0.853-4.625 7.181-9.86 11.93-9.86l137.925 0.487c4.14 0 8.887 3.653 9.496 6.94l0.487 347.188c0 2.8-3.531 5.234-6.209 5.234h-219.854zM131.732 593.703c-15.947-12.052-23.253-36.521-21.912-55.389 1.34-18.625 22.277-42.974 35.911-54.049l10.713-8.4c3.774-2.922 4.869-8.034 2.556-12.174l-6.453-12.052c-3.896-7.425-15.459-31.893-15.703-38.955 0-23.374 4.018-42.852 26.537-54.78 25.808-13.756 183.089 5.843 217.175 10.834l22.399 3.287c3.165 0.487 6.087-0.487 8.278-2.8s3.165-5.234 2.678-8.4l-3.774-22.399c-7.060-42.608-13.756-85.092-20.938-127.334-1.096-8.644-4.14-15.459-7.79-23.253-9.252-19.843-12.66-35.668-13.512-57.824-1.34-32.503 6.087-83.267 30.434-107.613 7.060-7.425 15.096-10.956 25.564-10.469 4.14 0 7.303 1.218 9.981 4.26 12.296 13.756 9.618 52.955 8.278 71.336 0 3.774-0.488 7.547-0.488 11.199 0 33.234 64.398 155.334 84.364 188.201 13.147 21.668 28.243 41.024 44.068 60.745 20.938 25.93 39.565 48.449 46.99 81.806 9.131 40.537 45.042 76.814 84.363 90.692-0.122 1.581-0.366 3.165-0.609 4.382-0.609 2.313-0.366 3.896-0.244 5.965l-62.814 322.962c-36.886 8.4-82.171 18.381-118.326 21.181-14.365 1.096-27.025 2.556-41.024 5.843-8.4 1.947-17.043 3.531-25.564 4.991-27.999 4.869-69.267 1.947-98.119 0.731-20.33-0.853-40.659-1.34-60.989-1.34-54.902 0-78.154-18.018-121.613-49.059-13.634-9.738-20.938-21.303-18.381-38.224 1.218-7.791 4.382-15.581 8.644-21.912l13.999-19.599c1.947-2.678 2.313-5.843 1.218-8.887s-3.409-5.234-6.697-6.087l-21.79-5.721c-21.060-9.009-27.877-26.903-27.877-49.181 0-12.418 3.409-37.858 15.947-45.043l26.537-14.487c3.165-1.703 4.991-4.747 5.112-8.4 0-3.652-1.703-6.697-4.869-8.522l-26.052-14.974c-1.947-1.096-4.26-1.46-6.331-1.218z" />
<glyph unicode="&#xe657;" glyph-name="warning2" d="M511.947 22.434c-113.654 0-220.534 44.34-300.96 124.659-80.32 80.425-124.659 187.306-124.659 300.96s44.34 220.534 124.659 300.96c80.32 80.425 187.306 124.659 300.96 124.659s220.534-44.34 300.96-124.659c80.32-80.425 124.659-187.306 124.659-300.96s-44.34-220.534-124.659-300.96c-80.32-80.425-187.306-124.659-300.96-124.659zM240.512 719.488c-72.488-72.488-112.489-168.893-112.489-271.435s40.001-198.946 112.489-271.435c72.488-72.488 168.893-112.489 271.435-112.489s198.946 39.895 271.435 112.489c72.488 72.489 112.489 168.893 112.489 271.435s-40.001 198.946-112.489 271.435c-72.489 72.488-168.893 112.489-271.435 112.489s-198.946-40.001-271.435-112.489zM498.931 651.655h26.138c4.339 0 7.831-3.492 7.831-7.831v-287.202c0-4.339-3.492-7.831-7.831-7.831h-26.138c-4.339 0-7.831 3.492-7.831 7.831v287.202c0 4.339 3.492 7.831 7.831 7.831zM498.931 312.176h26.138c4.339 0 7.831-3.492 7.831-7.831v-52.276c0-4.339-3.492-7.831-7.831-7.831h-26.138c-4.339 0-7.831 3.492-7.831 7.831v52.276c0 4.339 3.492 7.831 7.831 7.831z" />
<glyph unicode="&#xe65c;" glyph-name="download3" d="M337.28 449.92l-28.8-28.8 203.52-203.52 203.52 203.52-28.8 28.8-155.52-155.52v633.599h-38.4v-633.599zM611.84 728.32v-40.32h261.12v-679.679h-719.999v679.679h259.2v40.32h-299.52v-760.319h798.719v760.319z" />
<glyph unicode="&#xe65d;" glyph-name="folder" d="M494.486 651.655h435.249c4.339 0 7.831-3.492 7.831-7.831v-496.096c0-4.339-3.492-7.831-7.831-7.831h-835.575c-4.339 0-7.831 3.492-7.831 7.831v600.543c0 4.339 3.492 7.831 7.831 7.831h292.599c2.117 0 4.022-0.741 5.503-2.328l102.119-102.119zM895.871 181.591v428.37h-415.354c-2.117 0-4.022 0.741-5.503 2.328l-102.119 102.225h-244.767v-532.817h767.743z" />
<glyph unicode="&#xe65e;" glyph-name="folders" d="M846.135 226.884v-98.732c0-4.339-3.492-7.831-7.831-7.831h-744.145c-4.339 0-7.831 3.492-7.831 7.831v535.356c0 4.339 3.492 7.831 7.831 7.831h85.716c-1.27 1.376-2.117 3.28-2.117 5.291v91.43c0 4.339 3.492 7.831 7.831 7.831h261.699c2.117 0 3.916-0.741 5.503-2.223l90.373-89.103h386.676c4.339 0 7.831-3.492 7.831-7.831v-443.926c0-4.339-3.492-7.831-7.831-7.831h-78.309c-2.011 0-3.916 0.741-5.291 2.011zM846.135 264.45c1.375 1.27 3.28 2.011 5.291 2.011h44.446v376.093h-366.676c-2.117 0-4.022 0.741-5.503 2.222l-90.373 89.103h-213.868v-57.461c0-2.011-0.847-3.916-2.117-5.291h138.416c2.117 0 3.916-0.741 5.503-2.223l90.373-89.103h386.676c4.339 0 7.831-3.492 7.831-7.831v-307.626zM804.441 162.014v376.093h-366.676c-2.117 0-3.916 0.741-5.503 2.223l-90.373 89.103h-213.868v-467.524h676.418z" />
<glyph unicode="&#xe663;" glyph-name="crosshair" d="M533.504 799.232c177.408-10.752 318.976-152.32 329.728-329.728h89.6c3.584 0 8.96-3.584 8.96-8.96v-26.88c0-3.584-3.584-8.96-8.96-8.96h-89.6c-10.752-177.408-152.32-318.976-329.728-329.728v-89.6c0-3.584-3.584-8.96-8.96-8.96h-26.88c-3.584 0-8.96 3.584-8.96 8.96v89.6c-177.408 10.752-318.976 152.32-329.728 329.728h-89.6c-3.584 0-8.96 3.584-8.96 8.96v26.88c0 3.584 3.584 8.96 8.96 8.96h89.6c10.752 177.408 152.32 318.976 329.728 329.728v89.6c0 3.584 3.584 8.96 8.96 8.96h26.88c3.584 0 8.96-3.584 8.96-8.96v-89.6zM533.504 141.568c152.32 10.752 274.176 132.608 284.928 284.928h-87.808c-3.584 0-8.96 3.584-8.96 8.96v26.88c0 3.584 3.584 8.96 8.96 8.96h87.808c-10.752 152.32-132.608 274.176-284.928 284.928v-87.808c0-3.584-3.584-8.96-8.96-8.96h-26.88c-3.584 0-8.96 3.584-8.96 8.96v87.808c-152.32-10.752-274.176-132.608-284.928-284.928h87.808c3.584 0 8.96-3.584 8.96-8.96v-26.88c0-3.584-3.584-8.96-8.96-8.96h-87.808c10.752-152.32 132.608-274.176 284.928-284.928v87.808c0 3.584 3.584 8.96 8.96 8.96h26.88c3.584 0 8.96-3.584 8.96-8.96v-87.808z" />
<glyph unicode="&#xe665;" glyph-name="lightbulb" d="M393.728 82.432h-19.712c-5.376 0-8.96 3.584-8.96 8.96v73.472h-19.712c-5.376 0-8.96 3.584-8.96 8.96v152.32c-86.016 57.344-137.984 155.904-137.984 259.84 0 172.032 139.776 310.016 310.016 310.016 172.032 0 310.016-139.776 310.016-310.016 0-103.936-50.176-200.704-137.984-258.048v-154.112c0-5.376-3.584-8.96-8.96-8.96h-19.712v-73.472c0-5.376-3.584-8.96-8.96-8.96h-19.712v-73.472c0-5.376-3.584-8.96-8.96-8.96h-220.416c-5.376 0-8.96 3.584-8.96 8.96v73.472zM585.472 43.008v39.424h-148.736v-39.424h148.736zM381.184 290.304h48.384l-37.632 249.088c0 5.376 1.792 8.96 7.168 8.96l26.88 3.584c1.792 0 3.584 0 5.376-1.792s3.584-3.584 3.584-5.376l1.792-7.168 30.464-23.296 37.632 37.632c3.584 3.584 8.96 3.584 10.752 0l37.632-37.632 30.464 23.296 1.792 7.168c0 1.792 1.792 3.584 3.584 5.376s3.584 1.792 5.376 1.792l26.88-3.584c3.584 0 7.168-5.376 7.168-8.96l-37.632-249.088h48.384v55.552c0 3.584 1.792 5.376 3.584 7.168l7.168 3.584c78.848 48.384 127.232 134.4 127.232 227.584 0 146.944-120.064 267.008-267.008 267.008s-267.008-120.064-267.008-267.008c0-93.184 48.384-180.992 127.232-229.376l7.168-3.584c1.792-1.792 3.584-3.584 3.584-7.168v-53.76zM474.368 290.304h71.68l28.672 188.16-19.712-14.336c-3.584-1.792-7.168-1.792-10.752 0l-34.048 34.048-34.048-34.048c-3.584-3.584-7.168-3.584-10.752 0l-19.712 14.336 28.672-188.16zM381.184 247.296v-39.424h258.048v39.424h-258.048zM408.064 164.864v-39.424h204.288v39.424h-204.288z" />
<glyph unicode="&#xe667;" glyph-name="link" d="M528.561 522.129c0.106-0.212 0.212-0.318 0.318-0.529 0.529-1.27 1.164-2.646 1.799-3.916 1.905-3.81 0.212-8.571-3.598-10.37l-23.493-11.534c-3.81-1.905-8.571-0.318-10.476 3.598-0.847 1.799-1.799 3.704-2.54 5.503-8.36 19.154-12.699 39.684-12.699 60.637 0 40.212 17.143 77.568 45.080 106.14l171.962 171.856c26.456 19.895 57.885 30.265 91.008 30.265 40.424 0 78.415-15.662 106.986-44.128 28.572-28.572 44.446-66.562 44.446-106.986 0-33.016-10.476-64.551-30.477-91.325l-1.587-1.905-155.559-155.665c-28.89-38.096-72.7-59.684-120.426-59.684-20.953 0-41.271 4.233-60.425 12.593-2.011 0.847-3.386 2.328-4.127 4.339s-0.741 4.021 0.106 6.032l10.476 23.916c1.693 3.916 6.349 5.715 10.265 4.022 13.863-6.032 28.678-9.101 43.916-9.101 34.921 0 66.88 16.085 88.15 44.551l1.587 1.799 155.347 155.559c14.074 19.048 21.165 41.271 21.165 64.975 0 29.313-11.429 56.827-32.17 77.568s-48.361 32.064-77.674 32.064c-23.705 0-45.927-7.196-64.551-20.847l-168.787-168.893c-20.213-20.635-33.122-47.62-33.122-76.828 0-15.026 2.963-29.63 8.889-43.387zM499.037 384.559l23.916 10.476c3.916 1.693 8.572-0.106 10.265-4.022 8.466-19.154 12.699-39.578 12.699-60.531 0-33.016-10.476-64.551-30.583-91.43l-1.587-1.693-155.559-155.559c-28.89-37.991-72.7-59.578-120.426-59.578-40.424 0-78.415 15.662-107.092 44.234s-44.446 66.562-44.446 106.986c0 40.212 17.143 77.568 45.080 106.14l171.962 171.962c26.456 19.895 57.885 30.371 91.008 30.371 20.953 0 41.377-4.233 60.531-12.593 3.916-1.693 5.715-6.349 4.022-10.265l-10.476-23.915c-1.693-3.916-6.349-5.715-10.265-4.022-13.969 6.032-28.678 9.101-43.916 9.101-23.599 0-45.927-7.302-64.551-20.953l-168.787-168.998c-20.213-20.635-33.122-47.62-33.122-76.722 0-29.313 11.429-56.827 32.17-77.568s48.361-31.958 77.674-31.958c34.921 0 66.88 15.979 88.468 44.763l156.617 156.829c14.074 19.048 21.27 41.377 21.164 64.975 0 15.238-3.069 29.948-9.207 43.916-1.693 3.916 0.106 8.572 4.022 10.265zM644.12 550.912l-234.926-235.244c-3.069-3.069-7.937-3.069-11.006 0l-18.519 18.413c-3.069 3.069-3.069 8.042 0 11.006l234.926 235.244c3.069 3.069 7.937 3.069 11.006 0l18.519-18.413c3.069-3.069 3.069-8.042 0-11.006z" />
<glyph unicode="&#xe668;" glyph-name="lock" d="M753.92 456.96h102.144c5.376 0 8.96-3.584 8.96-8.96v-439.040c0-5.376-3.584-8.96-8.96-8.96h-686.336c-5.376 0-8.96 3.584-8.96 8.96v439.040c0 5.376 3.584 8.96 8.96 8.96h102.144v197.12c0 132.608 109.312 241.92 241.92 241.92s241.92-109.312 241.92-241.92v-197.12zM314.88 456.96h396.032v197.12c0 109.312-89.6 197.12-197.12 197.12-109.312 0-197.12-89.6-197.12-197.12v-197.12zM820.224 44.8v369.152h-616.448v-369.152h616.448zM533.504 168.448v-35.84c0-5.376-3.584-8.96-8.96-8.96h-26.88c-5.376 0-8.96 3.584-8.96 8.96v35.84c-32.256 8.96-55.552 39.424-55.552 73.472 0 43.008 34.048 77.056 77.056 77.056s77.056-34.048 77.056-77.056c0-34.048-23.296-64.512-55.552-73.472zM512 275.968c-17.92 0-32.256-14.336-32.256-32.256s14.336-32.256 32.256-32.256c17.92 0 32.256 14.336 32.256 32.256s-14.336 32.256-32.256 32.256z" />
<glyph unicode="&#xe669;" glyph-name="lock-open" d="M314.88 456.96h541.184c5.376 0 8.96-3.584 8.96-8.96v-439.040c0-5.376-3.584-8.96-8.96-8.96h-686.336c-5.376 0-8.96 3.584-8.96 8.96v439.040c0 5.376 3.584 8.96 8.96 8.96h102.144v197.12c0 132.608 109.312 241.92 241.92 241.92s241.92-109.312 241.92-241.92v-41.216c0-5.376-3.584-8.96-8.96-8.96h-26.88c-5.376 0-8.96 3.584-8.96 8.96v41.216c0 109.312-89.6 197.12-197.12 197.12-109.312 0-197.12-89.6-197.12-197.12v-197.12zM820.224 44.8v369.152h-616.448v-369.152h616.448zM533.504 168.448v-35.84c0-5.376-3.584-8.96-8.96-8.96h-26.88c-5.376 0-8.96 3.584-8.96 8.96v35.84c-32.256 8.96-55.552 39.424-55.552 73.472 0 43.008 34.048 77.056 77.056 77.056s77.056-34.048 77.056-77.056c0-34.048-23.296-64.512-55.552-73.472zM512 275.968c-17.92 0-32.256-14.336-32.256-32.256s14.336-32.256 32.256-32.256c17.92 0 32.256 14.336 32.256 32.256s-14.336 32.256-32.256 32.256z" />
<glyph unicode="&#xe66c;" glyph-name="star2" d="M310.018 331.827l-306.824 228.781c-2.801 2.037-3.946 5.602-2.801 9.040 1.145 3.31 4.074 5.474 7.638 5.474h378.883l117.383 361.313c1.145 3.31 4.074 5.602 7.638 5.602s6.621-2.164 7.638-5.602l117.383-361.313h378.883c3.565 0 6.493-2.164 7.638-5.474s0-6.876-2.801-9.040l-306.314-229.163 117.511-364.37c1.145-3.437-0.128-6.876-2.928-9.040-2.801-2.037-6.621-2.164-9.421 0l-307.079 221.524-307.079-223.943c-1.528-1.145-3.183-1.654-4.965-1.528h-0.509c-2.673 0.128-4.839 1.273-6.365 3.437s-1.909 4.584-1.145 7.129l117.509 367.169zM134.071 525.597l229.8-171.363c2.801-2.037 3.946-5.602 2.801-8.912l-87.082-272.959 227.763 166.016c2.928 2.037 6.621 2.164 9.421 0l227.763-164.233-87.082 271.176c-1.019 3.31 0 6.876 2.801 8.912l229.163 171.363h-282.762c-3.565 0-6.621 2.164-7.638 5.602l-86.955 267.484-86.955-267.484c-1.145-3.31-4.074-5.602-7.638-5.602h-283.398z" />
<glyph unicode="&#xe66d;" glyph-name="wallet" d="M960 508.928v-216.832c0-5.376-3.584-8.96-8.96-8.96h-21.504v-152.32c0-44.8-35.84-82.432-82.432-82.432h-702.464c-44.8 0-82.432 35.84-82.432 82.432v498.176c0 43.008 34.048 84.224 75.264 93.184l602.112 123.648c21.504 3.584 43.008 0 59.136-14.336 17.92-14.336 25.088-34.048 25.088-55.552v-78.848h21.504c44.8 0 82.432-35.84 82.432-82.432v-93.184h21.504c5.376 0 8.96-3.584 8.96-8.96 0-1.792 0-1.792 0-3.584zM246.784 695.296h535.808v78.848c0 7.168-1.792 14.336-8.96 19.712-5.376 5.376-14.336 5.376-21.504 3.584l-505.344-103.936zM884.736 283.136h-159.488c-1.792 0-5.376 1.792-7.168 3.584l-84.224 102.144c-1.792 3.584-3.584 7.168 0 10.752l84.224 118.272c1.792 1.792 3.584 3.584 7.168 3.584h159.488v93.184c0 19.712-16.128 35.84-35.84 35.84h-702.464c-19.712 0-35.84-16.128-35.84-35.84v-483.84c0-19.712 16.128-35.84 35.84-35.84h702.464c19.712 0 35.84 16.128 35.84 35.84v152.32zM913.408 329.728v143.36h-170.24l-55.552-78.848 53.76-66.304h170.24zM771.84 433.664c-19.712 0-35.84-16.128-35.84-35.84s16.128-35.84 35.84-35.84c19.712 0 35.84 16.128 35.84 35.84s-16.128 35.84-35.84 35.84z" />
<glyph unicode="&#xe670;" glyph-name="email-messages" d="M204.321 624.671c-0.106 0.423-0.106 0.741-0.106 1.164v104.765c0 3.704 2.963 6.667 6.667 6.667h720.017c3.704 0 6.667-2.963 6.667-6.667v-445.090c0-3.704-2.963-6.667-6.667-6.667h-117.78c-2.963 0-5.609 2.011-6.455 4.762v-117.886c0-3.704-2.963-6.667-6.667-6.667h-706.895c-3.704 0-6.667 2.963-6.667 6.667v452.392c0 3.704 2.963 6.667 6.667 6.667h111.22zM243.686 624.671h556.309c3.704 0 6.667-2.963 6.667-6.667v-304.452c0.847 2.751 3.386 4.762 6.455 4.762h84.976v379.374h-654.196v-71.853c0-0.423 0-0.741-0.106-1.164zM726.767 582.977h-560.543l261.699-261.699c9.841-9.841 27.303-9.841 37.144 0l261.699 261.699zM128.023 562.236v-334.928l167.411 167.411-167.411 167.411zM160.087 200.428h572.924l-164.872 164.872-73.546-73.546c-12.805-12.805-29.948-19.895-48.044-19.895s-35.239 7.090-48.044 19.895l-73.546 73.546-164.872-164.872zM764.969 227.307v334.928l-167.411-167.517 167.411-167.517z" />
<glyph unicode="&#xe671;" glyph-name="email-message-open" d="M822.016 602.112l134.4-55.552c1.792-1.792 3.584-3.584 3.584-7.168v-532.224c0-3.584-3.584-7.168-7.168-7.168h-881.664c-3.584 0-7.168 3.584-7.168 7.168v532.224c0 3.584 1.792 5.376 3.584 7.168l134.4 55.552v286.72c0 3.584 3.584 7.168 7.168 7.168h605.696c3.584 0 7.168-3.584 7.168-7.168v-286.72zM780.8 854.784h-537.6v-399.616l268.8-168.448 268.8 168.448v399.616zM201.984 482.048v75.264l-71.68-30.464 71.68-44.8zM105.216 41.216h813.568v451.584l-403.2-252.672c-1.792-1.792-5.376-1.792-7.168 0l-403.2 252.672v-451.584zM893.696 526.848l-71.68 30.464v-75.264l71.68 44.8z" />
<glyph unicode="&#xe672;" glyph-name="email-message-open2" d="M822.016 602.112l132.608-55.552c3.584-1.792 5.376-3.584 5.376-7.168v-532.224c0-3.584-3.584-8.96-8.96-8.96h-879.872c-3.584 0-8.96 3.584-8.96 8.96v532.224c0 3.584 1.792 5.376 5.376 7.168l132.608 55.552v284.928c0 3.584 3.584 8.96 8.96 8.96h605.696c3.584 0 8.96-3.584 8.96-8.96v-284.928zM779.008 851.2h-534.016v-396.032l267.008-166.656 267.008 166.656v396.032zM201.984 482.048v71.68l-68.096-28.672 68.096-43.008zM108.8 41.216h808.192v448l-399.616-250.88c-3.584-1.792-5.376-1.792-8.96 0l-399.616 250.88v-448zM891.904 525.056l-68.096 28.672v-71.68l68.096 43.008zM567.552 768.768h123.648c3.584 0 8.96-3.584 8.96-8.96v-26.88c0-3.584-3.584-8.96-8.96-8.96h-123.648c-3.584 0-8.96 3.584-8.96 8.96v26.88c0 3.584 3.584 8.96 8.96 8.96zM334.592 659.456h356.608c3.584 0 8.96-3.584 8.96-8.96v-26.88c0-3.584-3.584-8.96-8.96-8.96h-356.608c-3.584 0-8.96 3.584-8.96 8.96v26.88c0 3.584 3.584 8.96 8.96 8.96zM334.592 550.144h356.608c3.584 0 8.96-3.584 8.96-8.96v-26.88c0-3.584-3.584-8.96-8.96-8.96h-356.608c-3.584 0-8.96 3.584-8.96 8.96v26.88c0 3.584 3.584 8.96 8.96 8.96z" />
<glyph unicode="&#xe674;" glyph-name="message" d="M520.96 227.584l-209.664-179.2c-1.792-1.792-5.376-1.792-8.96-1.792-3.584 1.792-5.376 3.584-5.376 7.168v172.032h-225.792c-5.376 0-8.96 3.584-8.96 8.96v603.904c0 5.376 3.584 8.96 8.96 8.96h879.872c5.376 0 8.96-3.584 8.96-8.96v-603.904c0-5.376-3.584-8.96-8.96-8.96h-431.872zM108.8 804.608v-534.016h225.792c5.376 0 8.96-3.584 8.96-8.96v-130.816l159.488 137.984c1.792 1.792 3.584 1.792 5.376 1.792h408.576v534.016h-808.192z" />
<glyph unicode="&#xe675;" glyph-name="message-text" d="M296.96 227.584h-225.792c-5.376 0-8.96 3.584-8.96 8.96v603.904c0 5.376 3.584 8.96 8.96 8.96h879.872c5.376 0 8.96-3.584 8.96-8.96v-603.904c0-5.376-3.584-8.96-8.96-8.96h-431.872l-209.664-179.2c-1.792-1.792-5.376-1.792-8.96-1.792-3.584 1.792-5.376 3.584-5.376 7.168v172.032zM107.008 270.592h225.792c5.376 0 8.96-3.584 8.96-8.96v-130.816l159.488 137.984c1.792 1.792 3.584 1.792 5.376 1.792h408.576v534.016h-808.192v-534.016zM209.152 560.896h603.904c5.376 0 8.96-3.584 8.96-8.96v-26.88c0-5.376-3.584-8.96-8.96-8.96h-603.904c-5.376 0-8.96 3.584-8.96 8.96v26.88c0 5.376 3.584 8.96 8.96 8.96zM209.152 422.912h603.904c5.376 0 8.96-3.584 8.96-8.96v-26.88c0-5.376-3.584-8.96-8.96-8.96h-603.904c-5.376 0-8.96 3.584-8.96 8.96v26.88c0 5.376 3.584 8.96 8.96 8.96zM209.152 697.088h603.904c5.376 0 8.96-3.584 8.96-8.96v-26.88c0-5.376-3.584-8.96-8.96-8.96h-603.904c-5.376 0-8.96 3.584-8.96 8.96v26.88c0 5.376 3.584 8.96 8.96 8.96z" />
</font>
</defs>
</svg>
