<?xml version="1.0" encoding="UTF-8"?>
<!DOCTYPE svg PUBLIC "-//W3C//DTD SVG 1.1//EN" "http://www.w3.org/Graphics/SVG/1.1/DTD/svg11.dtd">
<!-- Creator: CorelDRAW X6 -->
<svg xmlns="http://www.w3.org/2000/svg" xml:space="preserve" width="200mm" height="200mm" version="1.1" style="shape-rendering:geometricPrecision; text-rendering:geometricPrecision; image-rendering:optimizeQuality; fill-rule:evenodd; clip-rule:evenodd"
viewBox="0 0 20000 20000"
 xmlns:xlink="http://www.w3.org/1999/xlink">
 <defs>
  <style type="text/css">
   <![CDATA[
    .fil0 {fill:#444444}
   ]]>
  </style>
 </defs>
 <g id="Layer_x0020_1">
  <metadata id="CorelCorpID_0Corel-Layer"/>
  <g id="_1022483440">
   <path class="fil0" d="M10000 20000c-160,0 -280,-80 -400,-200 -40,-80 -1400,-1800 -2800,-4400 -800,-1520 -1480,-3000 -1920,-4400 -600,-1800 -880,-3480 -880,-5000 0,-3320 2680,-6000 6000,-6000 3320,0 6000,2680 6000,6000 0,1520 -280,3240 -880,5000 -480,1400 -1120,2920 -1920,4400 -1400,2560 -2760,4320 -2800,4400 -80,120 -240,200 -400,200l-1 0zm0 -19000c-2760,0 -5000,2240 -5000,5000 0,3240 1480,6680 2680,8960 920,1680 1800,3000 2320,3720 520,-680 1400,-2040 2320,-3720 1240,-2280 2680,-5680 2680,-8920 0,-2760 -2240,-5000 -5000,-5000l0 0 0 -40z"/>
   <path class="fil0" d="M10000 9000c-1640,0 -3000,-1360 -3000,-3000 0,-1640 1360,-3000 3000,-3000 1640,0 3000,1360 3000,3000 0,1640 -1360,3000 -3000,3000zm0 -5000c-1120,0 -2000,880 -2000,2000 0,1120 880,2000 2000,2000 1120,0 2000,-880 2000,-2000 0,-1120 -880,-2000 -2000,-2000z"/>
  </g>
 </g>
</svg>
