<?xml version="1.0" encoding="UTF-8"?>
<!DOCTYPE svg PUBLIC "-//W3C//DTD SVG 1.1//EN" "http://www.w3.org/Graphics/SVG/1.1/DTD/svg11.dtd">
<!-- Creator: CorelDRAW X8 -->
<svg xmlns="http://www.w3.org/2000/svg" xml:space="preserve" width="33.966mm" height="5.8208mm" version="1.1" style="shape-rendering:geometricPrecision; text-rendering:geometricPrecision; image-rendering:optimizeQuality; fill-rule:evenodd; clip-rule:evenodd"
viewBox="0 0 3397 582"
 xmlns:xlink="http://www.w3.org/1999/xlink">
 <defs>
  <style type="text/css">
   <![CDATA[
    .fil0 {fill:#2F2D2A;fill-rule:nonzero}
    .fil1 {fill:#4b96e6;fill-rule:nonzero}
   ]]>
  </style>
 </defs>
 <g id="Layer_x0020_1">
  <metadata id="CorelCorpID_0Corel-Layer"/>
  <g id="_305947182240">
   <path class="fil0" d="M910 385c0,22 -1,39 -2,53 -1,14 -3,25 -5,30 -4,13 -11,23 -22,30 -10,8 -21,12 -33,12 -10,0 -20,-2 -30,-7l-1 0c-12,-6 -27,-14 -45,-26l-1 0c-16,-11 -39,-7 -50,10l-20 30 8 7c26,21 50,36 72,45 21,9 44,13 66,13 30,0 56,-7 78,-21 22,-14 38,-33 47,-56 5,-12 8,-28 10,-47 2,-20 3,-43 3,-71l0 -387 -38 0c-21,0 -37,17 -37,38l0 347z"/>
   <path class="fil0" d="M1232 232c16,-7 34,-11 53,-11 19,0 37,4 53,11 16,7 31,17 45,31 28,29 41,62 41,103 0,26 -6,50 -18,72 -13,23 -30,40 -51,52 -21,12 -44,18 -70,18 -26,0 -49,-6 -70,-18 -21,-12 -38,-29 -51,-52 -12,-22 -18,-46 -18,-72 0,-41 13,-74 41,-103 14,-14 29,-24 45,-31zm210 -15c-21,-22 -44,-40 -70,-51 -27,-12 -56,-17 -87,-17 -31,0 -60,5 -87,17 -26,11 -50,29 -70,52 -38,41 -57,91 -57,147 0,57 21,107 60,150 20,21 43,37 69,48 26,11 54,16 85,16 31,0 60,-5 85,-16 26,-11 49,-27 69,-48 39,-43 60,-93 60,-150 0,-57 -19,-107 -57,-148l0 0z"/>
   <path class="fil0" d="M1922 363c0,26 -6,49 -19,72 -13,23 -30,41 -52,53 -21,13 -44,19 -70,19 -20,0 -38,-3 -55,-10 -17,-7 -32,-17 -45,-31 -28,-28 -41,-62 -41,-104 0,-28 6,-52 18,-74 12,-21 29,-38 52,-51 23,-13 46,-19 72,-20 24,1 47,7 69,20 22,12 39,30 52,53 13,24 19,48 19,73zm-55 -199c-25,-10 -52,-15 -81,-15 -32,0 -62,6 -90,20 -19,9 -36,22 -53,38l0 -207 -37 0c-20,0 -36,16 -36,36l0 533 36 0c21,0 37,-17 37,-38l0 -12c16,16 33,29 51,38 27,15 58,22 91,22 29,0 56,-5 81,-16 25,-10 48,-26 68,-47 41,-41 62,-93 62,-152 0,-59 -20,-111 -61,-152 -20,-21 -43,-37 -68,-48z"/>
   <path class="fil0" d="M2126 232c10,-9 20,-13 33,-13 11,0 22,3 34,8 7,4 14,9 22,15l1 0c13,11 32,10 44,-2l26 -28 -8 -8c-19,-18 -38,-32 -57,-41 -20,-9 -39,-14 -59,-14 -33,0 -62,10 -84,32 -23,22 -34,50 -34,82 0,25 7,47 21,67 15,20 40,38 76,57l0 0c16,8 29,15 39,22 9,6 16,12 20,16 7,9 11,19 11,30 0,7 -2,14 -4,20 -3,6 -7,11 -13,17 -12,11 -26,16 -43,16 -13,0 -24,-3 -36,-9 -8,-4 -15,-10 -23,-16l0 0c-13,-12 -33,-12 -45,2l-24 27 6 8c15,18 33,33 55,43 22,11 45,16 69,16 36,0 67,-12 92,-37 24,-24 37,-54 37,-89 0,-24 -8,-48 -22,-67l0 0 0 -1c-16,-20 -42,-39 -80,-58l0 0c-15,-8 -27,-15 -36,-22 -10,-6 -16,-12 -20,-16l0 0c-8,-10 -11,-19 -11,-29 0,-5 1,-10 3,-15 2,-4 5,-9 10,-13z"/>
   <path class="fil0" d="M2497 232c16,-7 34,-11 53,-11 19,0 36,4 53,11 16,7 31,17 45,31 28,29 41,62 41,103 0,26 -6,50 -19,72 -12,23 -29,40 -50,52 -21,12 -44,18 -70,18 -26,0 -49,-6 -70,-18 -21,-12 -38,-29 -51,-52 -12,-22 -18,-46 -18,-72 0,-41 13,-74 41,-103 14,-14 29,-24 45,-31zm210 -15c-21,-22 -44,-40 -70,-51 -27,-12 -56,-17 -87,-17 -31,0 -60,5 -87,17 -26,11 -50,29 -70,52 -38,41 -57,91 -57,147 0,57 21,107 60,150 20,21 43,37 69,48 26,11 54,16 85,16 31,0 59,-5 85,-16 26,-11 49,-27 69,-48 39,-43 60,-93 59,-150 1,-57 -19,-107 -56,-148l0 0z"/>
   <path class="fil0" d="M3327 366c0,27 -6,51 -18,73 -12,22 -29,38 -52,51 -23,13 -46,19 -71,19 -25,0 -48,-6 -70,-19 -22,-13 -39,-30 -52,-53 -13,-24 -20,-48 -20,-73 0,-25 7,-49 20,-72 13,-23 30,-40 51,-53 22,-12 45,-19 71,-19 20,0 38,4 55,11 16,7 31,17 45,31 27,28 41,62 41,104zm-3 -330l0 173c-15,-16 -32,-29 -51,-39 -27,-14 -58,-21 -91,-21 -29,0 -56,5 -81,15 -25,11 -48,27 -69,48 -41,41 -62,92 -62,151 0,59 21,111 62,153 20,21 43,36 68,47 25,11 52,16 80,16 33,0 63,-7 91,-21 19,-9 36,-22 53,-37l0 48 37 0c20,0 36,-16 36,-35l0 -534 -37 0c-20,0 -36,16 -36,36z"/>
   <path class="fil0" d="M2825 569l37 0c20,0 36,-16 36,-36l0 -374 -37 0c-20,0 -36,16 -36,36l0 374z"/>
   <path class="fil0" d="M2861 105l-52 0 0 -52c0,-29 23,-53 53,-53l52 0 0 52c0,30 -24,53 -53,53z"/>
   <path class="fil1" d="M436 423l-72 0c-39,0 -70,-31 -72,-70 -2,39 -34,70 -73,70l-72 0 0 -72c0,-40 33,-73 73,-73l72 0 -51 -51c-28,-28 -28,-74 0,-103l0 0c28,-28 74,-28 102,0l0 0c28,29 28,75 0,103l-51 51 72 0c40,0 72,33 72,73l0 72zm-145 -421c-161,0 -291,130 -291,291l0 288 288 0c160,0 291,-131 291,-292l0 -287 -288 0z"/>
  </g>
 </g>
</svg>
