<?xml version="1.0" encoding="UTF-8"?>
<!DOCTYPE svg PUBLIC "-//W3C//DTD SVG 1.1//EN" "http://www.w3.org/Graphics/SVG/1.1/DTD/svg11.dtd">
<!-- Creator: CorelDRAW X6 -->
<svg xmlns="http://www.w3.org/2000/svg" xml:space="preserve" width="200mm" height="200mm" version="1.1" style="shape-rendering:geometricPrecision; text-rendering:geometricPrecision; image-rendering:optimizeQuality; fill-rule:evenodd; clip-rule:evenodd"
viewBox="0 0 20000 20000"
 xmlns:xlink="http://www.w3.org/1999/xlink">
 <defs>
  <style type="text/css">
   <![CDATA[
    .fil0 {fill:#444444}
   ]]>
  </style>
 </defs>
 <g id="Layer_x0020_1">
  <metadata id="CorelCorpID_0Corel-Layer"/>
  <path class="fil0" d="M12640 20000l-9560 0c-120,0 -200,-80 -200,-200 0,-6520 0,-13040 0,-19600 0,-120 80,-200 200,-200l13840 0c120,0 200,80 200,200l0 19600c0,120 -80,200 -200,200l-4280 0zm-5480 -960l0 -3360c0,-120 80,-200 200,-200l5280 0c120,0 200,80 200,200l0 3360 3320 0 0 -18080 -12320 0c0,6040 0,12040 0,18080l3320 0zm960 0l3760 0 0 -2600 -3760 0 0 2600z"/>
  <path class="fil0" d="M5080 2520l2320 0c40,0 80,40 80,80l0 2120c0,40 -40,80 -80,80l-2320 0c-40,0 -80,-40 -80,-80l0 -2120c0,-40 40,-80 80,-80zm1680 1600l0 -880 -1040 0 0 880 1040 0zm2080 -1600l2320 0c40,0 80,40 80,80l0 2120c0,40 -40,80 -80,80l-2320 0c-40,0 -80,-40 -80,-80l0 -2120c0,-40 40,-80 80,-80zm1680 1600l0 -880 -1040 0 0 880 1040 0zm2080 -1600l2320 0c40,0 80,40 80,80l0 2120c0,40 -40,80 -80,80l-2320 0c-40,0 -80,-40 -80,-80l0 -2120c0,-40 40,-80 80,-80zm1680 1600l0 -880 -1040 0 0 880 1040 0zm-9200 2360l2320 0c40,0 80,40 80,80l0 2120c0,40 -40,80 -80,80l-2320 0c-40,0 -80,-40 -80,-80l0 -2120c0,-40 40,-80 80,-80l0 0zm1680 1600l0 -880 -1040 0 0 880 1040 0zm2080 -1600l2320 0c40,0 80,40 80,80l0 2120c0,40 -40,80 -80,80l-2320 0c-40,0 -80,-40 -80,-80l0 -2120c0,-40 40,-80 80,-80l0 0zm1680 1600l0 -880 -1040 0 0 880 1040 0zm2080 -1600l2320 0c40,0 80,40 80,80l0 2120c0,40 -40,80 -80,80l-2320 0c-40,0 -80,-40 -80,-80l0 -2120c0,-40 40,-80 80,-80l0 0zm1680 1600l0 -880 -1040 0 0 880 1040 0zm-9200 2360l2320 0c40,0 80,40 80,80l0 2120c0,40 -40,80 -80,80l-2320 0c-40,0 -80,-40 -80,-80l0 -2120c0,-40 40,-80 80,-80zm1680 1600l0 -880 -1040 0 0 880 1040 0zm2080 -1600l2320 0c40,0 80,40 80,80l0 2120c0,40 -40,80 -80,80l-2320 0c-40,0 -80,-40 -80,-80l0 -2120c0,-40 40,-80 80,-80zm1680 1600l0 -880 -1040 0 0 880 1040 0zm2080 -1600l2320 0c40,0 80,40 80,80l0 2120c0,40 -40,80 -80,80l-2320 0c-40,0 -80,-40 -80,-80l0 -2120c0,-40 40,-80 80,-80zm1680 1600l0 -880 -1040 0 0 880 1040 0z"/>
 </g>
</svg>
