<?xml version="1.0" encoding="UTF-8"?>
<!DOCTYPE svg PUBLIC "-//W3C//DTD SVG 1.1//EN" "http://www.w3.org/Graphics/SVG/1.1/DTD/svg11.dtd">
<!-- Creator: CorelDRAW X6 -->
<svg xmlns="http://www.w3.org/2000/svg" xml:space="preserve" width="200mm" height="200mm" version="1.1" style="shape-rendering:geometricPrecision; text-rendering:geometricPrecision; image-rendering:optimizeQuality; fill-rule:evenodd; clip-rule:evenodd"
viewBox="0 0 20000 20000"
 xmlns:xlink="http://www.w3.org/1999/xlink">
 <defs>
  <style type="text/css">
   <![CDATA[
    .fil0 {fill:#444444}
   ]]>
  </style>
 </defs>
 <g id="Layer_x0020_1">
  <metadata id="CorelCorpID_0Corel-Layer"/>
  <path class="fil0" d="M19349 19162l-5943 -6484c1339,-1401 2075,-3233 2075,-5179 0,-2003 -780,-3887 -2197,-5303 -1417,-1417 -3300,-2197 -5303,-2197 -2003,0 -3887,780 -5303,2197 -1417,1417 -2197,3300 -2197,5303 0,2003 780,3887 2197,5303 1417,1417 3300,2197 5303,2197 1726,0 3363,-579 4689,-1645l5943 6483c99,107 233,162 369,162 121,0 242,-43 338,-131 203,-187 217,-503 31,-707l-1 1zm-17869 -11662c0,-3584 2916,-6500 6500,-6500 3584,0 6500,2916 6500,6500 0,3584 -2916,6500 -6500,6500 -3584,0 -6500,-2916 -6500,-6500z"/>
 </g>
</svg>
