<?xml version="1.0" encoding="UTF-8"?>
<!DOCTYPE svg PUBLIC "-//W3C//DTD SVG 1.1//EN" "http://www.w3.org/Graphics/SVG/1.1/DTD/svg11.dtd">
<!-- Creator: CorelDRAW X6 -->
<svg xmlns="http://www.w3.org/2000/svg" xml:space="preserve" width="200mm" height="48.886mm" version="1.1" style="shape-rendering:geometricPrecision; text-rendering:geometricPrecision; image-rendering:optimizeQuality; fill-rule:evenodd; clip-rule:evenodd"
viewBox="0 0 20000 4889"
 xmlns:xlink="http://www.w3.org/1999/xlink">
 <defs>
  <style type="text/css">
   <![CDATA[
    .fil0 {fill:#3296DC}
    .fil1 {fill:#FADC3C}
   ]]>
  </style>
 </defs>
 <g id="Layer_x0020_1">
  <metadata id="CorelCorpID_0Corel-Layer"/>
  <g id="_778172688">
   <path class="fil0" d="M19265 3270c0,-255 -76,-467 -230,-636 -154,-171 -358,-255 -613,-255 -249,0 -451,87 -608,263 -148,168 -221,378 -221,630 0,252 73,462 224,636 157,182 358,272 608,272 255,0 462,-89 619,-266 148,-171 221,-384 221,-644l0 0zm733 1537l-767 0 0 -322c-283,269 -599,403 -944,403 -425,0 -778,-162 -1058,-490 -269,-313 -403,-686 -403,-1114 0,-442 126,-817 381,-1125 274,-330 627,-493 1058,-493 370,0 691,137 966,414l0 -1517 767 0 0 4244 0 0z"/>
   <path class="fil0" d="M8501 3273c0,-252 -76,-462 -224,-630 -154,-176 -355,-263 -608,-263 -255,0 -459,87 -616,258 -151,168 -224,378 -224,633 0,260 73,473 221,644 157,176 364,266 619,266 246,0 448,-90 608,-272 148,-174 224,-384 224,-636l0 0zm767 11c0,428 -134,801 -403,1114 -280,328 -633,490 -1058,490 -347,0 -661,-134 -944,-403l0 322 -767 0 0 -4244 767 0 0 1517c277,-277 599,-414 969,-414 431,0 781,162 1053,493 255,308 384,683 384,1125l0 0z"/>
   <path class="fil0" d="M4965 3276c0,-255 -76,-465 -227,-633 -151,-168 -353,-252 -605,-252 -246,0 -448,87 -605,260 -151,165 -224,375 -224,624 0,255 73,465 221,630 154,176 353,263 605,263 249,0 454,-87 608,-263 151,-168 227,-378 227,-630l0 0zm778 -3c0,291 -70,563 -213,812 -143,252 -339,451 -588,591 -246,143 -521,213 -817,213 -445,0 -820,-157 -1128,-467 -305,-313 -459,-694 -459,-1139 0,-482 174,-882 524,-1198 305,-280 661,-417 1061,-417 288,0 560,70 812,216 255,143 454,339 596,588 143,249 213,518 213,803z"/>
   <path class="fil0" d="M2185 3391c0,342 -20,591 -56,745 -62,269 -193,467 -392,596 -160,104 -350,157 -574,157 -456,0 -843,-199 -1165,-599l568 -529c213,241 403,361 577,361 118,0 193,-73 230,-218 14,-64 20,-185 20,-358l0 -2979 792 0 0 2825 0 0z"/>
   <path class="fil0" d="M14571 3276c0,-255 -76,-465 -227,-633 -151,-168 -353,-252 -605,-252 -249,0 -451,87 -608,260 -148,165 -224,375 -224,624 0,255 76,465 221,630 154,176 356,263 608,263 249,0 451,-87 608,-263 151,-168 227,-378 227,-630l0 0zm778 -3c0,291 -73,563 -213,812 -143,252 -339,451 -588,591 -246,143 -521,213 -817,213 -445,0 -820,-157 -1128,-467 -308,-313 -462,-694 -462,-1139 0,-482 176,-882 526,-1198 305,-280 658,-417 1061,-417 288,0 557,70 812,216 255,143 454,339 596,588 140,249 213,518 213,803l0 0z"/>
   <path class="fil0" d="M11791 3934c0,297 -112,535 -336,711 -204,162 -459,243 -767,243 -445,0 -801,-174 -1067,-521l470 -518c199,241 412,358 636,358 81,0 157,-20 221,-56 76,-48 115,-109 115,-188 0,-120 -112,-235 -333,-347l-260 -129c-493,-249 -739,-563 -739,-941 0,-266 104,-482 308,-650 190,-157 420,-232 689,-232 423,0 759,168 1011,504l-479 476c-190,-193 -367,-288 -521,-288 -185,0 -274,64 -274,193 0,78 89,162 274,255l277 143c252,126 437,249 546,375 151,165 230,370 230,610l0 0z"/>
   <polygon class="fil0" points="16474,4888 15702,4888 15702,1826 16474,1826 "/>
   <path class="fil1" d="M15786 630c-185,185 -199,470 -34,636 165,165 451,151 636,-34 185,-185 202,-470 34,-636 -165,-168 -451,-151 -636,34zm-22 -316c347,-347 837,-417 1098,-157 260,260 190,750 -157,1098 -347,347 -837,417 -1098,157 -260,-260 -190,-750 157,-1098z"/>
  </g>
 </g>
</svg>
